/* XPM */
static char *collectible[] = {
/* columns rows colors chars-per-pixel */
"64 64 8 1 ",
"  c #2F2E2F",
". c #564064",
"X c #3E2F5A",
"o c #39314B",
"O c #1B1B1B",
"+ c #FFF21B",
"@ c #F2741B",
"# c #FBC41B",
/* pixels */
"                                                                ",
"                                                                ",
".....      ............................      ...................",
".....      ............................      ...................",
".......  ......XX................XX......  ............XX.......",
".......  ......XX................XX......  ............XX.......",
"XXX....  ....XXXXXXXX..XXXXXX..XXXXXX....  ....XXXX..XXXXXXXX..X",
"XXX....  ....XXXXXXXX..XXXXXX..XXXXXX....  ....XXXX..XXXXXXXX..X",
"XXXXX..  ..XXXXXXXXXXXXXXXXXXooXXXXXXXX..  ..XXXXXXXXXXooXXXXooX",
"XXXXX..  ..XXXXXXXXXXXXXXXXXXooXXXXXXXX..  ..XXXXXXXXXXooXXXXooX",
"XXXXXoo  ooXXXXXXXXXXXXooooXXXXooXXXXXXoo  ooXXXXXXXXooooXXXXXXo",
"XXXXXoo  ooXXXXXXXXXXXXooooXXXXooXXXXXXoo  ooXXXXXXXXooooXXXXXXo",
"XXXoooo  ooooXXXXXXXOOOOOOOOOOOOOOOOOOOOOOOOoooXXooooooXXXXooXXX",
"XXXoooo  ooooXXXXXXXOOOOOOOOOOOOOOOOOOOOOOOOoooXXooooooXXXXooXXX",
"Xoooooo  ooooooXXoooOOOOOOOOOOOOOOOOOOOOOOOOoooooooooooooooooooX",
"Xoooooo  ooooooXXoooOOOOOOOOOOOOOOOOOOOOOOOOoooooooooooooooooooX",
"ooooo      oooooOOOO++++++++++++++++++++++++OOOOoooooooooooooooo",
"ooooo      oooooOOOO++++++++++++++++++++++++OOOOoooooooooooooooo",
"                OOOO++++++++++++++++++++++++OOOO                ",
"                OOOO++++++++++++++++++++++++OOOO                ",
" ...........OOOO@@@@####################++++++++OOOO.......     ",
" ...........OOOO@@@@####################++++++++OOOO.......     ",
"............OOOO@@@@####################++++++++OOOO.XX......  .",
"............OOOO@@@@####################++++++++OOOO.XX......  .",
"...XXXX..XXXOOOO@@@@########++++++++########++++OOOOXXXXX....  .",
"...XXXX..XXXOOOO@@@@########++++++++########++++OOOOXXXXX....  .",
".ooXXXXXXXXXOOOO@@@@########++++++++########++++OOOOXXXXXoo..  .",
".ooXXXXXXXXXOOOO@@@@########++++++++########++++OOOOXXXXXoo..  .",
"oooooXXXXXXXOOOO@@@@####@@@@########++++####++++OOOOXXXoooooo  o",
"oooooXXXXXXXOOOO@@@@####@@@@########++++####++++OOOOXXXoooooo  o",
"oooooooXXoooOOOO@@@@####@@@@########++++####++++OOOOXoooooooo  o",
"oooooooXXoooOOOO@@@@####@@@@########++++####++++OOOOXoooooooo  o",
" oooooooooooOOOO@@@@####@@@@########++++####++++OOOOooooooo     ",
" oooooooooooOOOO@@@@####@@@@########++++####++++OOOOooooooo     ",
"            OOOO@@@@####@@@@########++++####++++OOOO            ",
"            OOOO@@@@####@@@@########++++####++++OOOO            ",
"............OOOO@@@@########@@@@@@@@########++++OOOO............",
"............OOOO@@@@########@@@@@@@@########++++OOOO............",
"...XX.......OOOO@@@@########@@@@@@@@########++++OOOO.......XX...",
"...XX.......OOOO@@@@########@@@@@@@@########++++OOOO.......XX...",
".XXXXXXXXXXXOOOO@@@@@@@@####################++++OOOOXXX..XXXXXX.",
".XXXXXXXXXXXOOOO@@@@@@@@####################++++OOOOXXX..XXXXXX.",
"XXXXXXXXXooXOOOO@@@@@@@@####################++++OOOOoXXXXXXXXXXX",
"XXXXXXXXXooXOOOO@@@@@@@@####################++++OOOOoXXXXXXXXXXX",
"ooooooooooooooo OOOO@@@@@@@@@@@@@@@@@@@@@@@@OOOOoooooooooooXXXXo",
"ooooooooooooooo OOOO@@@@@@@@@@@@@@@@@@@@@@@@OOOOoooooooooooXXXXo",
"ooooooooooooo   OOOO@@@@@@@@@@@@@@@@@@@@@@@@OOOO ooooooooooooooo",
"ooooooooooooo   OOOO@@@@@@@@@@@@@@@@@@@@@@@@OOOO ooooooooooooooo",
"                    OOOOOOOOOOOOOOOOOOOOOOOO                    ",
"                    OOOOOOOOOOOOOOOOOOOOOOOO                    ",
"   .................OOOOOOOOOOOOOOOOOOOOOOOO.................   ",
"   .................OOOOOOOOOOOOOOOOOOOOOOOO.................   ",
" ............XXXX..........  ....................XXXX.......... ",
" ............XXXX..........  ....................XXXX.......... ",
" ....XX..XXXXXXXXXX..XX....  ....XXXX..XXXXXX..XXXXXXXX..XX.... ",
" ....XX..XXXXXXXXXX..XX....  ....XXXX..XXXXXX..XXXXXXXX..XX.... ",
" ..ooXXXXXXXXooooXXXXXXoo..  ..ooXXXXXXXXooXXXXXXXXXXXXXXXXoo.. ",
" ..ooXXXXXXXXooooXXXXXXoo..  ..ooXXXXXXXXooXXXXXXXXXXXXXXXXoo.. ",
" ooooooXXXXooooXXXXXXoooooo  ooooooXXXXooooooXXXXXXXXXXXXoooooo ",
" ooooooXXXXooooXXXXXXoooooo  ooooooXXXXooooooXXXXXXXXXXXXoooooo ",
" oooooooooooooooooooooooooo  ooooooooooooooooooooooXXXXoooooooo ",
" oooooooooooooooooooooooooo  ooooooooooooooooooooooXXXXoooooooo ",
"   oooooooooooooooooooooo      oooooooooooooooooooooooooooooo   ",
"   oooooooooooooooooooooo      oooooooooooooooooooooooooooooo   "
};
