/* XPM */
static char *briks_floor[] = {
/* columns rows colors chars-per-pixel */
"64 64 4 1 ",
"  c #2F2E2F",
". c #3E2F5A",
"X c #564064",
"o c #85578E",
/* pixels */
"  ..XX..................................................XXXX..  ",
"                                                                ",
"                                                                ",
"  XXoooooooooooooooooooo      ooooooooooooooooooooooooooooooXX  ",
"  XXoooooooooooooooooooo      ooooooooooooooooooooooooooooooXX  ",
"  ooooooooXXoooooooooooooo  ooooooooooooXXooooooXXoooooooooooo  ",
"  ooooooooXXoooooooooooooo  ooooooooooooXXooooooXXoooooooooooo  ",
"  ooooXXXXXXXXooXXXXXXoooo  ooooXXXXooXXXXXXooXXXXXXXXooXXoooo  ",
"  ooooXXXXXXXXooXXXXXXoooo  ooooXXXXooXXXXXXooXXXXXXXXooXXoooo  ",
"  ooXXXXXXXXXXXXXXXX....oo  oo....XXXXXXXXXXXXXXXXXXXXXXXXXXoo  ",
"  ooXXXXXXXXXXXXXXXX....oo  oo....XXXXXXXXXXXXXXXXXXXXXXXXXXoo  ",
"  XXooXXXX................  ............XXXX..........XXXXXXXX  ",
"  XXooXXXX................  ............XXXX..........XXXXXXXX  ",
"  ..XXXX................      ..........................XXXX..  ",
"  ..XXXX................      ..........................XXXX..  ",
"                                                                ",
"                                                                ",
"  XXooooooooooooooooooooooooooooooooooooooooooooooooooooooooXX  ",
"  XXooooooooooooooooooooooooooooooooooooooooooooooooooooooooXX  ",
"  ooooooooooooooooooooooooooooXXXXoooooooooooooooooooooooooooo  ",
"  ooooooooooooooooooooooooooooXXXXoooooooooooooooooooooooooooo  ",
"  ooooXXXXXXooXXXXooXXXXXXooXXXXXXXXooXXooooXXooooXXooXXXXoooo  ",
"  ooooXXXXXXooXXXXooXXXXXXooXXXXXXXXooXXooooXXooooXXooXXXXoooo  ",
"  ooXXooXXXXXXXXXXXXXX..XXXXXX....XXXXXXXXXXXXXXXXXXXXXXooXXoo  ",
"  ooXXooXXXXXXXXXXXXXX..XXXXXX....XXXXXXXXXXXXXXXXXXXXXXooXXoo  ",
"  ooXXXXXXXXXX..XXXX......XXXXXXXXXXXX..XX..XX..XXXXXXXXXXXXXX  ",
"  ooXXXXXXXXXX..XXXX......XXXXXXXXXXXX..XX..XX..XXXXXXXXXXXXXX  ",
"  XXooXXXXXX....................XXXX..................XXXXXXXX  ",
"  XXooXXXXXX....................XXXX..................XXXXXXXX  ",
"  ..XXXX................................................XXXX..  ",
"  ..XXXX................................................XXXX..  ",
"                                                                ",
"                                                                ",
"  XXoooooooooooooooo      ooooooooooooooooooooooooooooooooooXX  ",
"  XXoooooooooooooooo      ooooooooooooooooooooooooooooooooooXX  ",
"  ooooooooooooXXoooooo  ooooooooooooXXoooooooooooooooooooooooo  ",
"  ooooooooooooXXoooooo  ooooooooooooXXoooooooooooooooooooooooo  ",
"  ooooooXXooXXXXXXoooo  ooooXXXXooXXXXXXXXooXXXXooooooXXoooooo  ",
"  ooooooXXooXXXXXXoooo  ooooXXXXooXXXXXXXXooXXXXooooooXXoooooo  ",
"  ooooXXXX..XXXXXXXXoo  ooXXXXXXXXXX..XXXX..XXXXXXooXXooXXoooo  ",
"  ooooXXXX..XXXXXXXXoo  ooXXXXXXXXXX..XXXX..XXXXXXooXXooXXoooo  ",
"  ooXXooXXXX..XXXXXX..  ..XXXXXXXX....XXXXXX..XXXXXXXXXXXXXXoo  ",
"  ooXXooXXXX..XXXXXX..  ..XXXXXXXX....XXXXXX..XXXXXXXXXXXXXXoo  ",
"  ooXXXXXXXX....XX....  ....XX......XXXX..XXXXXX....XXXXXXXXXX  ",
"  ooXXXXXXXX....XX....  ....XX......XXXX..XXXXXX....XXXXXXXXXX  ",
"  XXooXXXX............  ....................XX........XXXXXXXX  ",
"  XXooXXXX............  ....................XX........XXXXXXXX  ",
"  ..XX..............      ..............................XXXX..  ",
"  ..XX..............      ..............................XXXX..  ",
"                                                                ",
"                                                                ",
"  XXooooooooooooooooooooooooooooooooooooooooooooooooooooooooXX  ",
"  XXooooooooooooooooooooooooooooooooooooooooooooooooooooooooXX  ",
"  ooooooXXooooooooooooooooXXooooooXXoooooooooooooooooooooooooo  ",
"  ooooooXXooooooooooooooooXXooooooXXoooooooooooooooooooooooooo  ",
"  ooooooooXXooooooXXXXooXXXXXXooXXXXXXooXXooooooXXXXooooXXoooo  ",
"  ooooooooXXooooooXXXXooXXXXXXooXXXXXXooXXooooooXXXXooooXXoooo  ",
"  ooXXXXXXoo..oo..XXXXXXXXXXXX..XXXXXXXXXXXXooXXXXXXXXXXoooooo  ",
"  ooXXXXXXoo..oo..XXXXXXXXXXXX..XXXXXXXXXXXXooXXXXXXXXXXoooooo  ",
"  XXXXXXXXXX........XX....XXXXXXXXXX....XX..XXXX..XXXXXXXXXXXX  ",
"  XXXXXXXXXX........XX....XXXXXXXXXX....XX..XXXX..XXXXXXXXXXXX  ",
"  ..XXXXXX......................XX..................XXXXXXXX..  ",
"  ..XXXXXX......................XX..................XXXXXXXX..  ",
"                                                                "
};
