/* XPM */
static char *shadows[] = {
/* columns rows colors chars-per-pixel */
"64 64 4 1 ",
"  c #2F2E2F",
". c #564064",
"X c #3E2F5A",
"o c #39314B",
/* pixels */
"                                                                ",
"                                                                ",
".....      ............................      ...................",
".....      ............................      ...................",
".......  ......XX................XX......  ............XX.......",
".......  ......XX................XX......  ............XX.......",
"XXX....  ....XXXXXXXX..XXXXXX..XXXXXX....  ....XXXX..XXXXXXXX..X",
"XXX....  ....XXXXXXXX..XXXXXX..XXXXXX....  ....XXXX..XXXXXXXX..X",
"XXXXX..  ..XXXXXXXXXXXXXXXXXXooXXXXXXXX..  ..XXXXXXXXXXooXXXXooX",
"XXXXX..  ..XXXXXXXXXXXXXXXXXXooXXXXXXXX..  ..XXXXXXXXXXooXXXXooX",
"XXXXXoo  ooXXXXXXXXXXXXooooXXXXooXXXXXXoo  ooXXXXXXXXooooXXXXXXo",
"XXXXXoo  ooXXXXXXXXXXXXooooXXXXooXXXXXXoo  ooXXXXXXXXooooXXXXXXo",
"XXXoooo  ooooXXXXXXXXooooXXXXXXooooXXoooo  ooooXXooooooXXXXooXXX",
"XXXoooo  ooooXXXXXXXXooooXXXXXXooooXXoooo  ooooXXooooooXXXXooXXX",
"Xoooooo  ooooooXXooooooooooXXoooooooooooo  ooooooooooooooooooooX",
"Xoooooo  ooooooXXooooooooooXXoooooooooooo  ooooooooooooooooooooX",
"ooooo      oooooooooooooooooooooooooooo      ooooooooooooooooooo",
"ooooo      oooooooooooooooooooooooooooo      ooooooooooooooooooo",
"                                                                ",
"                                                                ",
" ............................      ........................     ",
" ............................      ........................     ",
"...............XX..............  ............XX......XX......  .",
"...............XX..............  ............XX......XX......  .",
"...XXXX..XXXXXXXXXXXX..XXXX....  ....XXXX..XXXXXX..XXXXXX....  .",
"...XXXX..XXXXXXXXXXXX..XXXX....  ....XXXX..XXXXXX..XXXXXX....  .",
".ooXXXXXXXXXXXXooXXooXXXXXXoo..  ..ooXXXXXXXXXXXXooXXXXXXoo..  .",
".ooXXXXXXXXXXXXooXXooXXXXXXoo..  ..ooXXXXXXXXXXXXooXXXXXXoo..  .",
"oooooXXXXXXXXooooXXXXXXXXoooooo  ooooooXXooooXXXXXXXXXXoooooo  o",
"oooooXXXXXXXXooooXXXXXXXXoooooo  ooooooXXooooXXXXXXXXXXoooooo  o",
"oooooooXXooooooooooooXXoooooooo  ooooooooooooooooooXXoooooooo  o",
"oooooooXXooooooooooooXXoooooooo  ooooooooooooooooooXXoooooooo  o",
" oooooooooooooooooooooooooooo      oooooooooooooooooooooooo     ",
" oooooooooooooooooooooooooooo      oooooooooooooooooooooooo     ",
"                                                                ",
"                                                                ",
".............      ........................      ...............",
".............      ........................      ...............",
"...XX..........  ............XX..............  ............XX...",
"...XX..........  ............XX..............  ............XX...",
".XXXXXXXXXXXX..  ..XXXX..XXXXXXXX..XXXXXX....  ....XXXX..XXXXXX.",
".XXXXXXXXXXXX..  ..XXXX..XXXXXXXX..XXXXXX....  ....XXXX..XXXXXX.",
"XXXXXXXXXooXXXX  XXXXXXXXXXXXooXXXXXXXXoooo..  ..ooooXXXXXXXXXXX",
"XXXXXXXXXooXXXX  XXXXXXXXXXXXooXXXXXXXXoooo..  ..ooooXXXXXXXXXXX",
"ooooooooooooooo  oooooooooooooooooooooooooooo  ooooooooooooXXXXo",
"ooooooooooooooo  oooooooooooooooooooooooooooo  ooooooooooooXXXXo",
"ooooooooooooo      oooooooooooooooooooooooo      ooooooooooooooo",
"ooooooooooooo      oooooooooooooooooooooooo      ooooooooooooooo",
"                                                                ",
"                                                                ",
"   ......................      ..............................   ",
"   ......................      ..............................   ",
" ............XXXX..........  ....................XXXX.......... ",
" ............XXXX..........  ....................XXXX.......... ",
" ....XX..XXXXXXXXXX..XX....  ....XXXX..XXXXXX..XXXXXXXX..XX.... ",
" ....XX..XXXXXXXXXX..XX....  ....XXXX..XXXXXX..XXXXXXXX..XX.... ",
" ..ooXXXXXXXXooooXXXXXXoo..  ..ooXXXXXXXXooXXXXXXXXXXXXXXXXoo.. ",
" ..ooXXXXXXXXooooXXXXXXoo..  ..ooXXXXXXXXooXXXXXXXXXXXXXXXXoo.. ",
" ooooooXXXXooooXXXXXXoooooo  ooooooXXXXooooooXXXXXXXXXXXXoooooo ",
" ooooooXXXXooooXXXXXXoooooo  ooooooXXXXooooooXXXXXXXXXXXXoooooo ",
" oooooooooooooooooooooooooo  ooooooooooooooooooooooXXXXoooooooo ",
" oooooooooooooooooooooooooo  ooooooooooooooooooooooXXXXoooooooo ",
"   oooooooooooooooooooooo      oooooooooooooooooooooooooooooo   ",
"   oooooooooooooooooooooo      oooooooooooooooooooooooooooooo   "
};
