/* XPM */
static char *_[] = {
/* columns rows colors chars-per-pixel */
"64 64 11 1 ",
"  c #2F2E2F",
". c #564064",
"X c #3E2F5A",
"o c #39314B",
"O c black",
"+ c #222034",
"@ c #696A6A",
"# c #929292",
"$ c #0C0B12",
"% c #494949",
"& c #363252",
/* pixels */
"                                                                ",
"                                                                ",
".....      ............................      ...................",
".....      ............................      ...................",
".......  ......XX................XX......  ............XX.......",
".......  ......XX................XX......  ............XX.......",
"XXX....  ....XXXXXXXX..XXXXXX..XXXXXX....  ....XXXX..XXXXXXXX..X",
"XXX....  ....XXXXXXXX..XXXXXX..XXXXXX....  ....XXXX..XXXXXXXX..X",
"XXXXX..  ..XXXXXXXXXXXXXXXXXXooXXXXXXXX..  ..XXXXXXXXXXooXXXXooX",
"XXXXX..  ..XXXXXXXXXXXXXXXXXXooOO++++++++  ..XXXXXXXXXXooXXXXooX",
"XXXXXoo  ooXXXXXXXXXXXXooooXXOOOO+++++++++++oXXXXXXXXooooXXXXXXo",
"XXXXXoo  ooXXXXXXXXXXXXooooOOOOOO@@@@@@@++++++XXXXXXXooooXXXXXXo",
"XXXoooo  ooooXXXXXXXXooooOOOOOO@@@@@@@@@##++++++XooooooXXXXooXXX",
"XXXoooo  ooooXXXXXXXXoooOOOOO@@@@@@@@@@@@###+++++ooooooXXXXooXXX",
"Xoooooo  ooooooXXooooooOOOO@@@@@@@@@@@@@@#####++++oooooooooooooX",
"Xoooooo  ooooooXXooooooOO@@@@@@@@@@@@@@@@@#####+++oooooooooooooX",
"ooooo      oooooooooooOOO@@@@@@@@@@@@@@@@@######+++ooooooooooooo",
"ooooo      oooooooooooOO@@@@@@@@@@@@@@@@@@@#####+++ooooooooooooo",
"                     OOO@@@@@@@@@@@@@@@@@@@######+++            ",
"                     OO@@@@@@@@@@@@@@@@@@@@@#####+++            ",
" ....................OO@@@@@@@@@@@@@@@@@@@@@######+++......     ",
" ....................OO@@@@@@@@@@@@@@@@@@@@@@#####+++......     ",
"...............XX....OO@@@@@@@@@@@@@@@@@@@@@@######++XX......  .",
"...............XX....OO@@@@@@@@@@@@@@@@@@@@@@######+++X......  .",
"...XXXX..XXXXXXXXXXXXOO@@@@@@@@@@@@@@@@@@@@@@######+++XXX....  .",
"...XXXX..XXXXXXXXXXXXOO@@@@@@@@@@@@@@@OO@@@++###++##++XXX....  .",
".ooXXXXXXXXXXXXooXXooOO@@@@@@@@@@@@@@@OO@@@++@##++##++XXXoo..  .",
".ooXXXXXXXXXXXXooXXooOO@@@@@@@@@@@@@@@OO@@@++@##++##++XXXoo..  .",
"oooooXXXXXXXXooooXXXXOO@@@@@@@@@@@@@@@OO@@@O+@##++##++Xoooooo  o",
"oooooXXXXXXXXooooXXXXOO@@@@@@@@@@@@@@@OO@@@OO@##++##++Xoooooo  o",
"oooooooXXooooooooooooOO@@@@@@@@@@@@@@@OO@@@OO@##++##++ooooooo  o",
"oooooooXXooooooooooooOO@@@@@@@@@@@@@@@OO@@@OO@##++##++ooooooo  o",
" ooooooooooooooooooooOO@@@@@@@@@@@@@@@OO@@@OO###++##++ooooo     ",
" ooooooooooooooooooooOO@@@@@@@@@@@@@@@@@@@@@########++ooooo     ",
"                     OO@@@@@@@@@@@@@@@@@@@@@########++          ",
"                     OOO@@@@@@@@@@@@@@@@@@@@########++          ",
".............      ...OO@@@@@@@@@@@@@@@@@@@@########++..........",
".............      ..OOOO@@@@@@@@@@@@@@@@@@#########++..........",
"...XX..........  ....OOOOO@@@@@@@@@@@@@@@@@########+++.....XX...",
"...XX..........OOOOOOOO@OOOO@@@@@@@@@@@@@@@######++++......XX...",
".XXXXXXXXXXXX.OOOOOOOOOO@OOOO@@@@@@@OOOOOO++++++++++XXX..XXXXXX.",
".XXXXXXXXXXXXOOO$$+$++OOO@@OO%%%%%%%%OOOOOOOOO++++++XXX..XXXXXX.",
"XXXXXXXXXooXOOO$$$$++++OO@@@@@@%%%%%%%%%%%@##++&&++++XXXXXXXXXXX",
"XXXXXXXXXooXOO$$$$$$+++OOO@@@@@@@@@@@@@@@@@##++&&&+++XXXXXXXXXXX",
"ooooooooooooOO$$$$$+$+++OO@@@@@@@@@@@@@@@###++&&&&&++ooooooXXXXo",
"ooooooooooooOO$$$$$$++$+OO@@@@@@@@@@@@@@@###++&&&&&++ooooooXXXXo",
"ooooooooooooOO$$$$$$$$+$OO@@@@@@@@@@@@@@@@##++&&&&&++ooooooooooo",
"ooooooooooooOO$$$$$$$$$OOO@@@@@@@@@@@@@@@@##++&&&&+++ooooooooooo",
"            OOO$$$$$$$$OOO@@@@@@@@@@@@@@@@##++&&&++++           ",
"            OOOO$$$$$$OOO@@@@@@@@@@@@@@@@###++++++++            ",
"   ..........OOOOOOOOOOOO@@@@@@@@@@@@@@@@@##+++++++..........   ",
"   ...........OOOOOOOOOO@@@@@@@@@@@@@@@@@###++...............   ",
" ............XXXX.....OOOOOOO@@@@@@@@@@@@##+++...XXXX.......... ",
" ............XXXX.......OOOOOO@@@@@@@@@@##++++...XXXX.......... ",
" ....XX..XXXXXXXXXX..XX.OO%%@OOOOOOOOOOO++++X..XXXXXXXX..XX.... ",
" ....XX..XXXXXXXXXX..XX.OO%%@@OOOOOOOOOO+++XX..XXXXXXXX..XX.... ",
" ..ooXXXXXXXXooooXXXXXXoOO%%@@@@@@++@@@##++XXXXXXXXXXXXXXXXoo.. ",
" ..ooXXXXXXXXooooXXXXXXoOO%%@@@@@@++@@@##++XXXXXXXXXXXXXXXXoo.. ",
" ooooooXXXXooooXXXXXXoooOO%%@@@@@@++@@@##++ooXXXXXXXXXXXXoooooo ",
" ooooooXXXXooooXXXXXXoooOO%%@@@@@@++@@##+++ooXXXXXXXXXXXXoooooo ",
" oooooooooooooooooooooooOO%%%@@@@@++@@##++oooooooooXXXXoooooooo ",
" oooooooooooooooooooooooOOO%%%@@@+++++++++oooooooooXXXXoooooooo ",
"   ooooooooooooooooooooooOOOO++++++++++++oooooooooooooooooooo   ",
"   oooooooooooooooooooooo OOO+++++ooooooooooooooooooooooooooo   "
};
