/* XPM */
static char *_[] = {
/* columns rows colors chars-per-pixel */
"64 64 11 1 ",
"  c #2F2E2F",
". c #564064",
"X c #3E2F5A",
"o c #39314B",
"O c black",
"+ c #222034",
"@ c #696A6A",
"# c #929292",
"$ c #0C0B12",
"% c #363252",
"& c #494949",
/* pixels */
"                                                                ",
"                                                                ",
".....      ............................      ...................",
".....      ............................      ...................",
".......  ......XX................XX......  ............XX.......",
".......  ......XX................XX......  ............XX.......",
"XXX....  ....XXXXXXXX..XXXXXX..XXXXXX....  ....XXXX..XXXXXXXX..X",
"XXX....  ....XXXXXXXX..XXXXXX..XXXXXX....  ....XXXX..XXXXXXXX..X",
"XXXXX..  ..XXXXXXXXXXXXXXXXXXooXXXXXXXX..  ..XXXXXXXXXXooXXXXooX",
"XXXXX..  ..XXXXXXXXXXXXXXXXXXooXXXXXXXX..  ..XXXXXXXXXXooXXXXooX",
"XXXXXoo  ooXXXXXXXXXXXXooooXXXXooXXXXXXoo  ooXXXXXXXXooooXXXXXXo",
"XXXXXoo  ooXXXXXXXXXXXXooooXXXXOO++++++++  ooXXXXXXXXooooXXXXXXo",
"XXXoooo  ooooXXXXXXXXooooXXXXOOOO+++++++++++oooXXooooooXXXXooXXX",
"XXXoooo  ooooXXXXXXXXooooXXOOOOOO@@@@@@@++++++oXXooooooXXXXooXXX",
"Xoooooo  ooooooXXooooooooOOOOOO@@@@@@@@@##++++++oooooooooooooooX",
"Xoooooo  ooooooXXoooooooOOOOO@@@@@@@@@@@@###+++++ooooooooooooooX",
"ooooo      ooooooooooooOOOO@@@@@@@@@@@@@@#####++++oooooooooooooo",
"ooooo      ooooooooooooOO@@@@@@@@@@@@@@@@@#####+++oooooooooooooo",
"                      OOO@@@@@@@@@@@@@@@@@######+++             ",
"                      OO@@@@@@@@@@@@@@@@@@@#####+++             ",
" ....................OOO@@@@@@@@@@@@@@@@@@@######+++.......     ",
" ....................OO@@@@@@@@@@@@@@@@@@@@@#####+++.......     ",
"...............XX....OO@@@@@@@@@@@@@@@@@@@@@######+++XX......  .",
"...............XX....OO@@@@@@@@@@@@@@@@@@@@@@#####+++XX......  .",
"...XXXX..XXXXXXXXXXXXOO@@@@@@@@@@@@@@@@@@@@@@######++XXXX....  .",
"...XXXX..XXXXXXXXXXXXOO@@@@@@@@@@@@@@@@@@@@@@######+++XXX....  .",
".ooXXXXXXXXXXXXooXXooOO@@@@@@@@@@@@@@@@@@@@@@######+++XXXoo..  .",
".ooXXXXXXXXXXXXooXXooOO@@@@@@@@@@@@@@@OO@@@++###++##++XXXoo..  .",
"oooooXXXXXXXXooooXXXXOO@@@@@@@@@@@@@@@OO@@@++@##++##++Xoooooo  o",
"oooooXXXXXXXXooooXXXXOO@@@@@@@@@@@@@@@OO@@@++@##++##++Xoooooo  o",
"oooooooXXooooooooooooOO@@@@@@@@@@@@@@@OO@@@O+@##++##++ooooooo  o",
"oooooooXXooooooooooooOO@@@@@@@@@@@@@@@OO@@@OO@##++##++ooooooo  o",
" ooooooooooooooooooooOO@@@@@@@@@@@@@@@OO@@@OO@##++##++ooooo     ",
" ooooooooooooooooooooOO@@@@@@@@@@@@@@@OO@@@OO@##++##++ooooo     ",
"                     OO@@@@@@@@@@@@@@@OO@@@OO###++##++          ",
"                     OO@@@@@@@@@@@@@@@@@@@@@########++          ",
".............      ..OO@@@@@@@@@@@@@@@@@@@@@########++..........",
".............OOOOOOOOOOO@@@@@@@@@@@@@@@@@@@@########++..........",
"...XX.......OOOOOOOOOOOO@@@@@@@@@@@@@@@@@@@@########++.....XX...",
"...XX......OOO$$+$++OOOOO@@@@@@@@@@@@@@@@@@#########++.....XX...",
".XXXXXXXXXOOO$$$$++++OOOOO@@@@@@@@@@@@@@@@@########+++X..XXXXXX.",
".XXXXXXXXXOO$$$$$$+++OOOOOOO@@@@@@@@@@@@@@@######+++++X..XXXXXX.",
"XXXXXXXXXoOO$$$$$+$+++OO@OOOO@@@@@@@OOOOOO+++++++++++++XXXXXXXXX",
"XXXXXXXXXoOO$$$$$$++$+OO@@@OO@@@@@@@@OOOOOOOOO++++%%+++XXXXXXXXX",
"ooooooooooOO$$$$$$$$+$OO@@@@@@@@@@@@@@@@@@##++%%%%%%%++ooooXXXXo",
"ooooooooooOO$$$$$$$$$OOO@@@@@@@@@@@@@@@@@@##++%%%%%%%++ooooXXXXo",
"ooooooooooOOO$$$$$$$$OOO@@@@@@@@@@@@@@@@@@##++%%%%%%%++ooooooooo",
"ooooooooooOOOO$$$$$$OOO@@@@@@@@@@@@@@@@@@###++%%%%%%+++ooooooooo",
"           OOOOOOOOOOOO@@@@@@@@@@@@@@@@@@@##++%%%%%++++         ",
"            OOOOOOOOOOO@@@@@@@@@@@@@@@@@@###++++++++++          ",
"   ..................OOO@@@@@@@@@@@@@@@@@##++++++++++........   ",
"   ...................OOOOOOOO@@@@@@@@@@##++++...............   ",
" ............XXXX.......OOOOOOOOOOOOOOOO++++.....XXXX.......... ",
" ............XXXX........OO&&@OOOOOOOOOO++++.....XXXX.......... ",
" ....XX..XXXXXXXXXX..XX..OO&&&@@@@@@@++###++X..XXXXXXXX..XX.... ",
" ....XX..XXXXXXXXXX..XX...OO&&@@@@@@@@++#++XX..XXXXXXXX..XX.... ",
" ..ooXXXXXXXXooooXXXXXXoo.OOO&&@@@@@@@++#++XXXXXXXXXXXXXXXXoo.. ",
" ..ooXXXXXXXXooooXXXXXXoo..OO&&&@@@@@@+++++XXXXXXXXXXXXXXXXoo.. ",
" ooooooXXXXooooXXXXXXoooooo OO&&@@@@@@++++oooXXXXXXXXXXXXoooooo ",
" ooooooXXXXooooXXXXXXoooooo OOO&&&@@@+++++oooXXXXXXXXXXXXoooooo ",
" oooooooooooooooooooooooooo  OO&&&&&+++++ooooooooooXXXXoooooooo ",
" oooooooooooooooooooooooooo  OOOO&O++++++ooooooooooXXXXoooooooo ",
"   oooooooooooooooooooooo     OOOOOO+++oooooooooooooooooooooo   ",
"   oooooooooooooooooooooo      oOOOO+++oooooooooooooooooooooo   "
};
