/* XPM */
static char *_[] = {
/* columns rows colors chars-per-pixel */
"64 64 11 1 ",
"  c #2F2E2F",
". c #564064",
"X c #3E2F5A",
"o c #39314B",
"O c black",
"+ c #222034",
"@ c #696A6A",
"# c #929292",
"$ c #0C0B12",
"% c #494949",
"& c #363252",
/* pixels */
"                                                                ",
"                                                                ",
".....      ............................      ...................",
".....      ............................      ...................",
".......  ......XX................XX......  ............XX.......",
".......  ......XX................XX......  ............XX.......",
"XXX....  ....XXXXXXXX..XXXXXX..XXXXXX....  ....XXXX..XXXXXXXX..X",
"XXX....  ....XXXXXXXX..XXXXXX..XXXXXX....  ....XXXX..XXXXXXXX..X",
"XXXXX..  ..XXXXXXXXXXXXXXXXXXooXXXXXXXX..  ..XXXXXXXXXXooXXXXooX",
"XXXXX..  ..XXXXXXXXXXXXXXXXXXooXXXXXXXX..  ..XXXXXXXXXXooXXXXooX",
"XXXXXoo  ooXXXXXXXXXXXXooooXXXXooXXXXXXoo  ooXXXXXXXXooooXXXXXXo",
"XXXXXoo  ooXXXXXXXXXXXXooooXXXXOO++++++++  ooXXXXXXXXooooXXXXXXo",
"XXXoooo  ooooXXXXXXXXooooXXXXOOOO+++++++++++oooXXooooooXXXXooXXX",
"XXXoooo  ooooXXXXXXXXooooXXOOOOOO@@@@@@@++++++oXXooooooXXXXooXXX",
"Xoooooo  ooooooXXooooooooOOOOOO@@@@@@@@@##++++++oooooooooooooooX",
"Xoooooo  ooooooXXoooooooOOOOO@@@@@@@@@@@@###+++++ooooooooooooooX",
"ooooo      ooooooooooooOOOO@@@@@@@@@@@@@@#####++++oooooooooooooo",
"ooooo      ooooooooooooOO@@@@@@@@@@@@@@@@@#####+++oooooooooooooo",
"                      OOO@@@@@@@@@@@@@@@@@######+++             ",
"                      OO@@@@@@@@@@@@@@@@@@@#####+++             ",
" ....................OOO@@@@@@@@@@@@@@@@@@@######+++.......     ",
" ....................OO@@@@@@@@@@@@@@@@@@@@@#####+++.......     ",
"...............XX....OO@@@@@@@@@@@@@@@@@@@@@######+++XX......  .",
"...............XX....OO@@@@@@@@@@@@@@@@@@@@@@#####+++XX......  .",
"...XXXX..XXXXXXXXXXXXOO@@@@@@@@@@@@@@@@@@@@@@######++XXXX....  .",
"...XXXX..XXXXXXXXXXXXOO@@@@@@@@@@@@@@@@@@@@@@######+++XXX....  .",
".ooXXXXXXXXXXXXooXXooOO@@@@@@@@@@@@@@@@@@@@@@######+++XXXoo..  .",
".ooXXXXXXXXXXXXooXXooOO@@@@@@@@@@@@@@@OO@@@++###++##++XXXoo..  .",
"oooooXXXXXXXXooooXXXXOO@@@@@@@@@@@@@@@OO@@@++@##++##++Xoooooo  o",
"oooooXXXXXXXXooooXXXXOO@@@@@@@@@@@@@@@OO@@@++@##++##++Xoooooo  o",
"oooooooXXooooooooooooOO@@@@@@@@@@@@@@@OO@@@O+@##++##++ooooooo  o",
"oooooooXXooooooooooooOO@@@@@@@@@@@@@@@OO@@@OO@##++##++ooooooo  o",
" ooooooooooooooooooooOO@@@@@@@@@@@@@@@OO@@@OO@##++##++ooooo     ",
" ooooooooooooooooooooOO@@@@@@@@@@@@@@@OO@@@OO@##++##++ooooo     ",
"                     OO@@@@@@@@@@@@@@@OO@@@OO###++##++          ",
"                     OO@@@@@@@@@@@@@@@@@@@@@########++          ",
".............      ..OO@@@@@@@@@@@@@@@@@@@@@########++..........",
".............      ..OOO@@@@@@@@@@@@@@@@@@@@########++..........",
"...XX..........  .....OO@@@@@@@@@@@@@@@@@@@@########++.....XX...",
"...XX..........  ....OOOO@@@@@@@@@@@@@@@@@@#########++.....XX...",
".XXXXXXXXXXXX..  ..XXOOOOO@@@@@@@@@@@@@@@@@########+++X..XXXXXX.",
".XXXXXXXXXXXX..  ..XXOOOOOOOO@@@@@@@@@@@@@@######++++XX..XXXXXX.",
"XXXXXXXXXooXXXX  XXXOOOOOOOOOO@@@@@@OOOOOO++++++++++oXXXXXXXXXXX",
"XXXXXXXXXooXXXX  XXOOO$$+$++OOO%%%%%%OOOOOOOOO++++oooXXXXXXXXXXX",
"ooooooooooooooo  oOOO$$$$++++OO@@@@@@@@@@@@##++++ooooooooooXXXXo",
"ooooooooooooooo  oOO$$$$$$+++OOO@@@@@@@@@#@##++++ooooooooooXXXXo",
"ooooooooooooo     OO$$$$$+$+++OO@@@@@@@@@###++&++ooooooooooooooo",
"ooooooooooooo     OO$$$$$$++$+OO@@@@@@@@@@##++&++ooooooooooooooo",
"                  OO$$$$$$$$+$OO@@@@@@@@@@##++&++               ",
"                  OO$$$$$$$$$OOO@@@@@@@@@@##+++++               ",
"   ...............OOO$$$$$$$$OOO@@@@@@@@@###+++++............   ",
"   ...............OOOO$$$$$$OOO@@@@@@@@@@@##++++.............   ",
" ............XXXX..OOOOOOOOOOOO@@@@@@@@@@###+++..XXXX.......... ",
" ............XXXX...OOOOOOOOOO@@@@@@@@@@@###++...XXXX.......... ",
" ....XX..XXXXXXXXXX..OOOOOOOOOO@@@@@@@@@###+++.XXXXXXXX..XX.... ",
" ....XX..XXXXXXXXXX..OO%OOOOOOOOOOOOOOOO++++++.XXXXXXXX..XX.... ",
" ..ooXXXXXXXXooooXXXXOO%%@@@@@@OOOOOOOOO++++#++XXXXXXXXXXXXoo.. ",
" ..ooXXXXXXXXooooXXXOO%%@@@@@@@++X++@@@@@@@##++XXXXXXXXXXXXoo.. ",
" ooooooXXXXooooXXXXXOO%%@@@@@@++oo++@@@@@@@##++XXXXXXXXXXoooooo ",
" ooooooXXXXooooXXXXXOOO%%@@@@@++oo++@@@@@@##+++XXXXXXXXXXoooooo ",
" oooooooooooooooooooOOO%%%@@@@++oo+++@@@@@##++oooooXXXXoooooooo ",
" ooooooooooooooooooooOOO+++@+++ooo+++@@@@+++++oooooXXXXoooooooo ",
"   ooooooooooooooooooooO+++++++oooo+++++++++++ooooooooooooooo   ",
"   oooooooooooooooooooooo +++  oooooo++++oooooooooooooooooooo   "
};
