/* XPM */
static char *_[] = {
/* columns rows colors chars-per-pixel */
"64 64 11 1 ",
"  c #2F2E2F",
". c #564064",
"X c #3E2F5A",
"o c #39314B",
"O c black",
"+ c #222034",
"@ c #696A6A",
"# c #929292",
"$ c #0C0B12",
"% c #363252",
"& c #494949",
/* pixels */
"                                                                ",
"                                                                ",
".....      ............................      ...................",
".....      ............................      ...................",
".......  ......XX................XX......  ............XX.......",
".......  ......XX................XX......  ............XX.......",
"XXX....  ....XXXXXXXX..XXXXXX..XXXXXX....  ....XXXX..XXXXXXXX..X",
"XXX....  ....XXXXXXXX..XXXXXX..XXXXXX....  ....XXXX..XXXXXXXX..X",
"XXXXX..  ..XXXXXXXXXXXXXXXXXXooXXXXXXXX..  ..XXXXXXXXXXooXXXXooX",
"XXXXX..  ..XXXXXXXXXXXXXXXXXXooXXXXXXXX..  ..XXXXXXXXXXooXXXXooX",
"XXXXXoo  ooXXXXXXXXXXXXooooXXXXooXXXXXXoo  ooXXXXXXXXooooXXXXXXo",
"XXXXXoo  ooXXXXXXXXXXXXooooXXXXooXXXXXXoo  ooXXXXXXXXooooXXXXXXo",
"XXXoooo  ooooXXXXXXXXooooXXXXXXOO++++++++  ooooXXooooooXXXXooXXX",
"XXXoooo  ooooXXXXXXXXooooXXXXOOOO+++++++++++oooXXooooooXXXXooXXX",
"Xoooooo  ooooooXXooooooooooOOOOOO@@@@@@@++++++oooooooooooooooooX",
"Xoooooo  ooooooXXooooooooOOOOOO@@@@@@@@@##++++++oooooooooooooooX",
"ooooo      oooooooooooooOOOOO@@@@@@@@@@@@###+++++ooooooooooooooo",
"ooooo      ooooooooooooOOOO@@@@@@@@@@@@@@#####++++oooooooooooooo",
"                       OO@@@@@@@@@@@@@@@@@#####+++              ",
"                      OOO@@@@@@@@@@@@@@@@@######+++             ",
" .....................OO@@@@@@@@@@@@@@@@@@@#####+++........     ",
" ....................OOO@@@@@@@@@@@@@@@@@@@######+++.......     ",
"...............XX....OO@@@@@@@@@@@@@@@@@@@@@#####+++.XX......  .",
"...............XX....OO@@@@@@@@@@@@@@@@@@@@@######+++XX......  .",
"...XXXX..XXXXXXXXXXXXOO@@@@@@@@@@@@@@@@@@@@@@#####+++XXXX....  .",
"...XXXX..XXXXXXXXXXXXOO@@@@@@@@@@@@@@@@@@@@@@######++XXXX....  .",
".ooXXXXXXXXXXXXooXXooOO@@@@@@@@@@@@@@@@@@@@@@######+++XXXoo..  .",
".ooXXXXXXXXXXXXooXXooOO@@@@@@@@@@@@@@@@@@@@@@######+++XXXoo..  .",
"oooooXXXXXXXXooooXXXXOO@@@@@@@@@@@@@@@OO@@@++###++##++Xoooooo  o",
"oooooXXXXXXXXooooXXXXOO@@@@@@@@@@@@@@@OO@@@++@##++##++Xoooooo  o",
"oooooooXXooooooooooooOO@@@@@@@@@@@@@@@OO@@@++@##++##++ooooooo  o",
"oooooooXXooooooooooooOO@@@@@@@@@@@@@@@OO@@@O+@##++##++ooooooo  o",
" ooooooooooooooooooooOO@@@@@@@@@@@@@@@OO@@@OO@##++##++ooooo     ",
" ooooooooooooooooooooOO@@@@@@@@@@@@@@@OO@@@OO@##++##++ooooo     ",
"                     OO@@@@@@@@@@@@@@@OO@@@OO@##++##++          ",
"                     OO@@@@@@@@@@@@@@@OO@@@OO###++##++          ",
".............      ..OO@@@@@@@@@@@@@@@@@@@@@########++..........",
".............      ..OO@@@@@@@@@@@@@@@@@@@@@########++..........",
"...XX........OOOOOOOOOOO@@@@@@@@@@@@@@@@@@@@########++.....XX...",
"...XX.......OOOOOOOOOOOO@@@@@@@@@@@@@@@@@@@@########++.....XX...",
".XXXXXXXXXXOOO$$+$++OOOOO@@@@@@@@@@@@@@@@@@#########++X..XXXXXX.",
".XXXXXXXXXOOO$$$$++++OOOOO@@@@@@@@@@@@@@@@@########+++X..XXXXXX.",
"XXXXXXXXXoOO$$$$$$+++OOOOOOO@@@@@@@@@@@@@@@######+++++XXXXXXXXXX",
"XXXXXXXXXoOO$$$$$+$+++OO@OOOO@@@@@@@OOOOOO+++++++++++++XXXXXXXXX",
"ooooooooooOO$$$$$$++$+OO@@@OO@@@@@@@@OOOOOOOOO++++%%+++ooooXXXXo",
"ooooooooooOO$$$$$$$$+$OO@@@@@@@@@@@@@@@@@@##++%%%%%%%++ooooXXXXo",
"ooooooooooOO$$$$$$$$$OOO@@@@@@@@@@@@@@@@@@##++%%%%%%%++ooooooooo",
"ooooooooooOOO$$$$$$$$OOO@@@@@@@@@@@@@@@@@@##++%%%%%%%++ooooooooo",
"          OOOO$$$$$$OOO@@@@@@@@@@@@@@@@@@###++%%%%%%+++         ",
"           OOOOOOOOOOOO@@@@@@@@@@@@@@@@@@@##++%%%%%++++         ",
"   .........OOOOOOOOOOO@@@@@@@@@@@@@@@@@@###++++++++++.......   ",
"   ..................OOO@@@@@@@@@@@@@@@@@##++++++++++........   ",
" ............XXXX.....OOOOOOOO@@@@@@@@@@##++++...XXXX.......... ",
" ............XXXX.......OOOOOOOOOOOOOOOO++++.....XXXX.......... ",
" ....XX..XXXXXXXXXX..XX..OO&&@OOOOOOOOOO++++X..XXXXXXXX..XX.... ",
" ....XX..XXXXXXXXXX..XX..OO&&&@@@@@@@++###++X..XXXXXXXX..XX.... ",
" ..ooXXXXXXXXooooXXXXXXoo.OO&&@@@@@@@@++#++XXXXXXXXXXXXXXXXoo.. ",
" ..ooXXXXXXXXooooXXXXXXoo.OOO&&@@@@@@@++#++XXXXXXXXXXXXXXXXoo.. ",
" ooooooXXXXooooXXXXXXooooooOO&&&@@@@@@+++++ooXXXXXXXXXXXXoooooo ",
" ooooooXXXXooooXXXXXXoooooo OO&&@@@@@@++++oooXXXXXXXXXXXXoooooo ",
" oooooooooooooooooooooooooo OOO&&&@@@+++++oooooooooXXXXoooooooo ",
" oooooooooooooooooooooooooo  OO&&&&&+++++ooooooooooXXXXoooooooo ",
"   oooooooooooooooooooooo    OOOO&O++++++oooooooooooooooooooo   ",
"   oooooooooooooooooooooo     OOOOOO+++oooooooooooooooooooooo   "
};
