/* XPM */
static char *Path_Tile[] = {
/* columns rows colors chars-per-pixel */
"16 16 2 1 ",
"  c #E4A672",
". c #B86F50",
/* pixels */
"                ",
"                ",
"                ",
"      ....      ",
"    .......     ",
"   ........     ",
"  ........      ",
"  .......       ",
"   ....   ..    ",
"        .....   ",
"       ......   ",
"       .....    ",
"        ..      ",
"                ",
"                ",
"                "
};
