/* XPM */
static char *_[] = {
/* columns rows colors chars-per-pixel */
"64 64 11 1 ",
"  c #2F2E2F",
". c #564064",
"X c #3E2F5A",
"o c #222034",
"O c black",
"+ c #696A6A",
"@ c #39314B",
"# c #929292",
"$ c #494949",
"% c #363252",
"& c #0C0B12",
/* pixels */
"                                                                ",
"                                                                ",
".....      ............................      ...................",
".....      ............................      ...................",
".......  ......XX................XX......  ............XX.......",
".......  ......XX................XX......  ............XX.......",
"XXX....  ....XXXXXXXX..XXXXXooooooooOO...  ....XXXX..XXXXXXXX..X",
"XXX....  ....XXXXXXXX..XXoooooooooooOOOO.  ....XXXX..XXXXXXXX..X",
"XXXXX..  ..XXXXXXXXXXXXoooooo+++++++OOOOOO ..XXXXXXXXXX@@XXXX@@X",
"XXXXX..  ..XXXXXXXXXXoooooo##+++++++++OOOOOO.XXXXXXXXXX@@XXXX@@X",
"XXXXX@@  @@XXXXXXXXXooooo###++++++++++++OOOOOXXXXXXXX@@@@XXXXXX@",
"XXXXX@@  @@XXXXXXXXoooo#####++++++++++++++OOOOXXXXXXX@@@@XXXXXX@",
"XXX@@@@  @@@@XXXXXXooo#####+++++++++++++++++OO@XX@@@@@@XXXX@@XXX",
"XXX@@@@  @@@@XXXXXooo######+++++++++++++++++OOOXX@@@@@@XXXX@@XXX",
"X@@@@@@  @@@@@@XX@ooo#####+++++++++++++++++++OO@@@@@@@@@@@@@@@@X",
"X@@@@@@  @@@@@@XXooo######+++++++++++++++++++OOO@@@@@@@@@@@@@@@X",
"@@@@@      @@@@@@ooo#####+++++++++++++++++++++OO@@@@@@@@@@@@@@@@",
"@@@@@      @@@@@ooo######+++++++++++++++++++++OO@@@@@@@@@@@@@@@@",
"                ooo#####++++++++++++++++++++++OO                ",
"                oo######++++++++++++++++++++++OO                ",
" ..............ooo######++++++++++++++++++++++OO...........     ",
" ..............ooo######++++++++++++++++++++++OO...........     ",
"...............oo##oo###oo+++OO+++++++++++++++OO.....XX......  .",
"...............oo##oo##+oo+++OO+++++++++++++++OO.....XX......  .",
"...XXXX..XXXXXXoo##oo##+oo+++OO+++++++++++++++OOX..XXXXXX....  .",
"...XXXX..XXXXXXoo##oo##+oO+++OO+++++++++++++++OOX..XXXXXX....  .",
".@@XXXXXXXXXXXXoo##oo##+OO+++OO+++++++++++++++OOX@@XXXXXX@@..  .",
".@@XXXXXXXXXXXXoo##oo##+OO+++OO+++++++++++++++OOX@@XXXXXX@@..  .",
"@@@@@XXXXXXXX@@oo##oo##+OO+++OO+++++++++++++++OOXXXXXXX@@@@@@  @",
"@@@@@XXXXXXXX@@oo##oo###OO+++OO+++++++++++++++OOXXXXXXX@@@@@@  @",
"@@@@@@@XX@@@@@@oo########+++++++++++++++++++++OO@@@XX@@@@@@@@  @",
"@@@@@@@XX@@@@@@oo########+++++++++++++++++++++OO@@@XX@@@@@@@@  @",
" @@@@@@@@@@@@@@oo########++++++++++++++++++++OOO@@@@@@@@@@@     ",
" @@@@@@@@@@@@@@oo########++++++++++++++++++++OO@@@@@@@@@@@@     ",
"               oo#########++++++++++++++++++OOO                 ",
"               ooo########+++++++++++++++++OOO                  ",
".............   oooo######+++++++++++++++OOOO    ...............",
".............    ooooooooooOOOOOO+++++++OOOO     ...............",
"...XX..........  .oooooOOOOOOOOO$$$$$$$$OOOO.  ............XX...",
"...XX.........oooooo##+$$$$$$$$$$$$$$++++OOOOOOOO..........XX...",
".XXXXXXXXXXXXooooooo##++++++++++++++++++OOOOOOOOOO.XXXX..XXXXXX.",
".XXXXXXXXXXXoooo%%oo###++++++++++++++++OOOoo&o&&OOOXXXX..XXXXXX.",
"XXXXXXXXX@@oooo%%%oo###++++++++++++++++OOoooo&&&&OOO@XXXXXXXXXXX",
"XXXXXXXXX@@ooo%%%%oo##++++++++++++++++OOOooo&&&&&&OO@XXXXXXXXXXX",
"@@@@@@@@@@@oo%%%%%oo##++++++++++++++++OOooo&o&&&&&OO@@@@@@@XXXX@",
"@@@@@@@@@@@oo%%%%%oo##++++++++++++++++OOo&oo&&&&&&OO@@@@@@@XXXX@",
"@@@@@@@@@@@oo%%%%%oo###+++++++++++++++OO&o&&&&&&&&OO@@@@@@@@@@@@",
"@@@@@@@@@@@ooo%%%%oo##++++++++++++++++OOO&&&&&&&&&OO@@@@@@@@@@@@",
"           oooo%%%oo###+++++++++++++++OOO&&&&&&&&OOO            ",
"            ooooooooo##++++++++++++++++OOO&&&&&&OOOO            ",
"   ..........ooooooooo##+++++++++++++++OOOOOOOOOOOO..........   ",
"   .................ooooOOOOOOOOOOOOOOOOOOOOOOOOOO...........   ",
" ............XXXX....oooOOOOOOOOOOOOOOOO.........XXXX.......... ",
" ............XXXX....oo##+++OO++++++$$OO.........XXXX.......... ",
" ....XX..XXXXXXXXXX..oo##+++OO++++++$$OOXXXXX..XXXXXXXX..XX.... ",
" ....XX..XXXXXXXXXX..oo##+++oo++++++$$OOXXXXX..XXXXXXXX..XX.... ",
" ..@@XXXXXXXX@@@@XXXXoo##+++oo++++++$$OOX@@XXXXXXXXXXXXXXXX@@.. ",
" ..@@XXXXXXXX@@@@XXXXoo##+++oo++++++$$OOX@@XXXXXXXXXXXXXXXX@@.. ",
" @@@@@@XXXX@@@@XXXXXXoo##+++oo++++++$$OO@@@@@XXXXXXXXXXXX@@@@@@ ",
" @@@@@@XXXX@@@@XXXXXXooo##++oo++++++$$OO@@@@@XXXXXXXXXXXX@@@@@@ ",
" @@@@@@@@@@@@@@@@@@@@@oo##++oo+++++$$$OO@@@@@@@@@@@XXXX@@@@@@@@ ",
" @@@@@@@@@@@@@@@@@@@@@ooooooooo+++$$$OOO@@@@@@@@@@@XXXX@@@@@@@@ ",
"   @@@@@@@@@@@@@@@@@@@@ooooooooooooOOOO@@@@@@@@@@@@@@@@@@@@@@   ",
"   @@@@@@@@@@@@@@@@@@@@@@     oooooOOO@@@@@@@@@@@@@@@@@@@@@@@   "
};
