/* XPM */
static char *_[] = {
/* columns rows colors chars-per-pixel */
"64 64 11 1 ",
"  c #2F2E2F",
". c #564064",
"X c #3E2F5A",
"o c #222034",
"O c black",
"+ c #39314B",
"@ c #696A6A",
"# c #929292",
"$ c #494949",
"% c #363252",
"& c #0C0B12",
/* pixels */
"                                                                ",
"                                                                ",
".....      ............................      ...................",
".....      ............................      ...................",
".......  ......XX................XX......  ............XX.......",
".......  ......XX................XX......  ............XX.......",
"XXX....  ....XXXXXXXX..XXXXXX..XXXXXX....  ....XXXX..XXXXXXXX..X",
"XXX....  ....XXXXXXXX..XXXXXXooooooooOO..  ....XXXX..XXXXXXXX..X",
"XXXXX..  ..XXXXXXXXXXXXXXXoooooooooooOOOO  ..XXXXXXXXXX++XXXX++X",
"XXXXX..  ..XXXXXXXXXXXXXoooooo@@@@@@@OOOOOO..XXXXXXXXXX++XXXX++X",
"XXXXX++  ++XXXXXXXXXXXoooooo##@@@@@@@@@OOOOOOXXXXXXXX++++XXXXXX+",
"XXXXX++  ++XXXXXXXXXXooooo###@@@@@@@@@@@@OOOOOXXXXXXX++++XXXXXX+",
"XXX++++  ++++XXXXXXXoooo#####@@@@@@@@@@@@@@OOOOXX++++++XXXX++XXX",
"XXX++++  ++++XXXXXXXooo#####@@@@@@@@@@@@@@@@@OOXX++++++XXXX++XXX",
"X++++++  ++++++XX++ooo######@@@@@@@@@@@@@@@@@OOO+++++++++++++++X",
"X++++++  ++++++XX++ooo#####@@@@@@@@@@@@@@@@@@@OO+++++++++++++++X",
"+++++      +++++++ooo######@@@@@@@@@@@@@@@@@@@OOO+++++++++++++++",
"+++++      +++++++ooo#####@@@@@@@@@@@@@@@@@@@@@OO+++++++++++++++",
"                 ooo######@@@@@@@@@@@@@@@@@@@@@OO               ",
"                 ooo#####@@@@@@@@@@@@@@@@@@@@@@OO               ",
" ................oo######@@@@@@@@@@@@@@@@@@@@@@OO..........     ",
" ...............ooo######@@@@@@@@@@@@@@@@@@@@@@OO..........     ",
"...............Xooo######@@@@@@@@@@@@@@@@@@@@@@OO....XX......  .",
"...............Xoo##oo###oo@@@OO@@@@@@@@@@@@@@@OO....XX......  .",
"...XXXX..XXXXXXXoo##oo##@oo@@@OO@@@@@@@@@@@@@@@OO..XXXXXX....  .",
"...XXXX..XXXXXXXoo##oo##@oo@@@OO@@@@@@@@@@@@@@@OO..XXXXXX....  .",
".++XXXXXXXXXXXX+oo##oo##@oO@@@OO@@@@@@@@@@@@@@@OO++XXXXXX++..  .",
".++XXXXXXXXXXXX+oo##oo##@OO@@@OO@@@@@@@@@@@@@@@OO++XXXXXX++..  .",
"+++++XXXXXXXX+++oo##oo##@OO@@@OO@@@@@@@@@@@@@@@OOXXXXXX++++++  +",
"+++++XXXXXXXX+++oo##oo##@OO@@@OO@@@@@@@@@@@@@@@OOXXXXXX++++++  +",
"+++++++XX+++++++oo##oo###OO@@@OO@@@@@@@@@@@@@@@OO++XX++++++++  +",
"+++++++XX+++++++oo########@@@@@@@@@@@@@@@@@@@@@OO++XX++++++++  +",
" +++++++++++++++oo########@@@@@@@@@@@@@@@@@@@@@OO++++++++++     ",
" +++++++++++++++oo########@@@@@@@@@@@@@@@@@@@@OOO++++++++++     ",
"                oo########@@@@@@@@@@@@@@@@@@@@OO                ",
"                oo#########@@@@@@@@@@@@@@@@@@OOO                ",
".............   ooo########@@@@@@@@@@@@@@@@@OOO  ...............",
".............    oooo######@@@@@@@@@@@@@@@OOOO   ...............",
"...XX..........  .ooooooooooOOOOOO@@@@@@@OOOO  ............XX...",
"...XX..........  ..oooooOOOOOOOOO$$$$$$$$OOOO  ............XX...",
".XXXXXXXXXXXX.. ooooo##@$$$$$$$$$$$$$$@@@@@OOOOOOOOXXXX..XXXXXX.",
".XXXXXXXXXXXX..oooooo##@@@@@@@@@@@@@@@@@@@OOOOOOOOOOXXX..XXXXXX.",
"XXXXXXXXX++XXXoooo%oo###@@@@@@@@@@@@@@@@@OOOoo&o&&OOOXXXXXXXXXXX",
"XXXXXXXXX++XXoooo%%oo###@@@@@@@@@@@@@@@@@OOoooo&&&&OOOXXXXXXXXXX",
"+++++++++++++ooo%%%oo##@@@@@@@@@@@@@@@@@OOOooo&&&&&&OO+++++XXXX+",
"+++++++++++++oo%%%%oo##@@@@@@@@@@@@@@@@@OOooo&o&&&&&OO+++++XXXX+",
"+++++++++++++oo%%%%oo##@@@@@@@@@@@@@@@@@OOo&oo&&&&&&OO++++++++++",
"+++++++++++++oo%%%%oo###@@@@@@@@@@@@@@@@OO&o&&&&&&&&OO++++++++++",
"             ooo%%%oo##@@@@@@@@@@@@@@@@@OOO&&&&&&&&&OO          ",
"             oooo%%oo###@@@@@@@@@@@@@@@@OOO&&&&&&&&OOO          ",
"   ...........oooooooo##@@@@@@@@@@@@@@@@@OOO&&&&&&OOOO.......   ",
"   ............oooooooo##@@@@@@@@@@@@@@@@OOOOOOOOOOOO........   ",
" ............XXXX....ooooOOOOOOOOOOOOOOOOOOOOOOOOOOOX.......... ",
" ............XXXX.....oooOOOOOOOOOOOOOOOO........XXXX.......... ",
" ....XX..XXXXXXXXXX..Xoo##@@@OO@@@@@@$$OOXXXX..XXXXXXXX..XX.... ",
" ....XX..XXXXXXXXXX..Xoo##@@@oo@@@@@@$$OOXXXX..XXXXXXXX..XX.... ",
" ..++XXXXXXXX++++XXXXXoo##@@@oo@@@@@@$$OO++XXXXXXXXXXXXXXXX++.. ",
" ..++XXXXXXXX++++XXXXXoo##@@@oo@@@@@@$$OO++XXXXXXXXXXXXXXXX++.. ",
" ++++++XXXX++++XXXXXX+oo##@@@oo@@@@@@$$OO++++XXXXXXXXXXXX++++++ ",
" ++++++XXXX++++XXXXXX+ooo##@@oo@@@@@@$$OO++++XXXXXXXXXXXX++++++ ",
" ++++++++++++++++++++++oo##@@oo@@@@@$$$OO++++++++++XXXX++++++++ ",
" ++++++++++++++++++++++ooooooooo@@@$$$OOO++++++++++XXXX++++++++ ",
"   +++++++++++++++++++++ooooooooooooOOOO+++++++++++++++++++++   ",
"   ++++++++++++++++++++++      oooooOOO++++++++++++++++++++++   "
};
