/* XPM */
static char *_[] = {
/* columns rows colors chars-per-pixel */
"64 64 11 1 ",
"  c #2F2E2F",
". c #564064",
"X c #3E2F5A",
"o c #222034",
"O c black",
"+ c #39314B",
"@ c #696A6A",
"# c #929292",
"$ c #0C0B12",
"% c #363252",
"& c #494949",
/* pixels */
"                                                                ",
"                                                                ",
".....      ............................      ...................",
".....      ............................      ...................",
".......  ......XX................XX......  ............XX.......",
".......  ......XX................XX......  ............XX.......",
"XXX....  ....XXXXXXXX..XXXXXX..XXXXXX....  ....XXXX..XXXXXXXX..X",
"XXX....  ....XXXXXXXX..XXXXXX..XXXXXX....  ....XXXX..XXXXXXXX..X",
"XXXXX..  ..XXXXXXXXXXXXXXXXXXooooooooOO..  ..XXXXXXXXXX++XXXX++X",
"XXXXX..  ..XXXXXXXXXXXXXXXoooooooooooOOOO  ..XXXXXXXXXX++XXXX++X",
"XXXXX++  ++XXXXXXXXXXXX+oooooo@@@@@@@OOOOOO++XXXXXXXX++++XXXXXX+",
"XXXXX++  ++XXXXXXXXXXXoooooo##@@@@@@@@@OOOOOOXXXXXXXX++++XXXXXX+",
"XXX++++  ++++XXXXXXXXooooo###@@@@@@@@@@@@OOOOO+XX++++++XXXX++XXX",
"XXX++++  ++++XXXXXXXoooo#####@@@@@@@@@@@@@@OOOOXX++++++XXXX++XXX",
"X++++++  ++++++XX+++ooo#####@@@@@@@@@@@@@@@@@OO++++++++++++++++X",
"X++++++  ++++++XX++ooo######@@@@@@@@@@@@@@@@@OOO+++++++++++++++X",
"+++++      ++++++++ooo#####@@@@@@@@@@@@@@@@@@@OO++++++++++++++++",
"+++++      +++++++ooo######@@@@@@@@@@@@@@@@@@@OOO+++++++++++++++",
"                  ooo#####@@@@@@@@@@@@@@@@@@@@@OO               ",
"                 ooo######@@@@@@@@@@@@@@@@@@@@@OO               ",
" ................ooo#####@@@@@@@@@@@@@@@@@@@@@@OO..........     ",
" ................oo######@@@@@@@@@@@@@@@@@@@@@@OO..........     ",
"...............Xooo######@@@@@@@@@@@@@@@@@@@@@@OO....XX......  .",
"...............Xooo######@@@@@@@@@@@@@@@@@@@@@@OO....XX......  .",
"...XXXX..XXXXXXXoo##oo###oo@@@OO@@@@@@@@@@@@@@@OO..XXXXXX....  .",
"...XXXX..XXXXXXXoo##oo##@oo@@@OO@@@@@@@@@@@@@@@OO..XXXXXX....  .",
".++XXXXXXXXXXXX+oo##oo##@oo@@@OO@@@@@@@@@@@@@@@OO++XXXXXX++..  .",
".++XXXXXXXXXXXX+oo##oo##@oO@@@OO@@@@@@@@@@@@@@@OO++XXXXXX++..  .",
"+++++XXXXXXXX+++oo##oo##@OO@@@OO@@@@@@@@@@@@@@@OOXXXXXX++++++  +",
"+++++XXXXXXXX+++oo##oo##@OO@@@OO@@@@@@@@@@@@@@@OOXXXXXX++++++  +",
"+++++++XX+++++++oo##oo##@OO@@@OO@@@@@@@@@@@@@@@OO++XX++++++++  +",
"+++++++XX+++++++oo##oo###OO@@@OO@@@@@@@@@@@@@@@OO++XX++++++++  +",
" +++++++++++++++oo########@@@@@@@@@@@@@@@@@@@@@OO++++++++++     ",
" +++++++++++++++oo########@@@@@@@@@@@@@@@@@@@@@OO++++++++++     ",
"                oo########@@@@@@@@@@@@@@@@@@@@OOO               ",
"                oo########@@@@@@@@@@@@@@@@@@@@OO                ",
".............   oo#########@@@@@@@@@@@@@@@@@@OOO ...............",
".............   ooo########@@@@@@@@@@@@@@@@@OOO  ...............",
"...XX..........  oooo######@@@@@@@@@@@@@@@OOOO ............XX...",
"...XX..........  .ooooooooooOOOOOO@@@@@@@OOOO  ............XX...",
".XXXXXXXXXXXX..  ..oooooOOOOOOOOO@@@@@@@@OOOOOOOOOOOXXX..XXXXXX.",
".XXXXXXXXXXXX..  oooo###@@@@@@@@@@@@@@@@@@@OOOOOOOOOOXX..XXXXXX.",
"XXXXXXXXX++XXXX ooooo###@@@@@@@@@@@@@@@@@@OOOoo$o$$OOOXXXXXXXXXX",
"XXXXXXXXX++XXXXoooooo##@@@@@@@@@@@@@@@@@@@OOoooo$$$$OOOXXXXXXXXX",
"++++++++++++++oooo%oo##@@@@@@@@@@@@@@@@@@OOOooo$$$$$$OO++++XXXX+",
"++++++++++++++ooo%%oo##@@@@@@@@@@@@@@@@@@OOooo$o$$$$$OO++++XXXX+",
"+++++++++++++ oo%%%oo###@@@@@@@@@@@@@@@@@OOo$oo$$$$$$OO+++++++++",
"+++++++++++++ oo%%%oo##@@@@@@@@@@@@@@@@@@OO$o$$$$$$$$OO+++++++++",
"              oo%%%oo###@@@@@@@@@@@@@@@@@OOO$$$$$$$$$OO         ",
"              ooo%%ooo##@@@@@@@@@@@@@@@@@OOO$$$$$$$$OOO         ",
"   ...........oooo%oooo##@@@@@@@@@@@@@@@@OOOO$$$$$$OOOO......   ",
"   ............ooooooooooOOOOOOOOOOOOOOOOOOOOOOOOOOOOO.......   ",
" ............XXXooooo.oooOOOOOOOOOOOOOOOO..OOOOOOOOOO.......... ",
" ............XXXX.....oo##@@@OO@@@@@@&&OO........XXXX.......... ",
" ....XX..XXXXXXXXXX..Xoo##@@@OO@@@@@@&&OOXXXX..XXXXXXXX..XX.... ",
" ....XX..XXXXXXXXXX..Xoo##@@@oo@@@@@@&&OOXXXX..XXXXXXXX..XX.... ",
" ..++XXXXXXXX++++XXXXXoo##@@@oo@@@@@@&&OO++XXXXXXXXXXXXXXXX++.. ",
" ..++XXXXXXXX++++XXXXXoo##@@@oo@@@@@@&&OO++XXXXXXXXXXXXXXXX++.. ",
" ++++++XXXX++++XXXXXX+oo##@@@oo@@@@@@&&OO++++XXXXXXXXXXXX++++++ ",
" ++++++XXXX++++XXXXXX+ooo##@@oo@@@@@@&&OO++++XXXXXXXXXXXX++++++ ",
" ++++++++++++++++++++++oo##@@oo@@@@@&&&OO++++++++++XXXX++++++++ ",
" ++++++++++++++++++++++ooooooooo@@@&&&OOO++++++++++XXXX++++++++ ",
"   +++++++++++++++++++++ooooooooooooOOOO+++++++++++++++++++++   ",
"   ++++++++++++++++++++++      oooooOOO++++++++++++++++++++++   "
};
