/* XPM */
static char *_[] = {
/* columns rows colors chars-per-pixel */
"64 64 11 1 ",
"  c #2F2E2F",
". c #564064",
"X c #3E2F5A",
"o c black",
"O c #222034",
"+ c #696A6A",
"@ c #39314B",
"# c #929292",
"$ c #494949",
"% c #0C0B12",
"& c #363252",
/* pixels */
"                                                                ",
"                                                                ",
".....      ............................      ...................",
".....      ............................      ...................",
".......  ......XX................XX......  ............XX.......",
".......  ......XX................XX......  ............XX.......",
"XXX....  ....XXXXXXXX..XXXooOOOOOOOOX....  ....XXXX..XXXXXXXX..X",
"XXX....  ....XXXXXXXX..XooooOOOOOOOOOOO..  ....XXXX..XXXXXXXX..X",
"XXXXX..  ..XXXXXXXXXXXoooooo+++++++OOOOOO  ..XXXXXXXXXX@@XXXX@@X",
"XXXXX..  ..XXXXXXXXXoooooo+++++++++##OOOOOO..XXXXXXXXXX@@XXXX@@X",
"XXXXX@@  @@XXXXXXXXooooo++++++++++++###OOOOO@XXXXXXXX@@@@XXXXXX@",
"XXXXX@@  @@XXXXXXXoooo++++++++++++++#####OOOOXXXXXXXX@@@@XXXXXX@",
"XXX@@@@  @@@@XXXXXoo+++++++++++++++++#####OOO@@XX@@@@@@XXXX@@XXX",
"XXX@@@@  @@@@XXXXooo+++++++++++++++++######OOO@XX@@@@@@XXXX@@XXX",
"X@@@@@@  @@@@@@XXoo+++++++++++++++++++#####OOO@@@@@@@@@@@@@@@@@X",
"X@@@@@@  @@@@@@Xooo+++++++++++++++++++######OOO@@@@@@@@@@@@@@@@X",
"@@@@@      @@@@@oo+++++++++++++++++++++#####OOO@@@@@@@@@@@@@@@@@",
"@@@@@      @@@@@oo+++++++++++++++++++++######OOO@@@@@@@@@@@@@@@@",
"                oo++++++++++++++++++++++#####OOO                ",
"                oo++++++++++++++++++++++######OO                ",
" ...............oo++++++++++++++++++++++######OOO..........     ",
" ...............oo++++++++++++++++++++++######OOO..........     ",
"...............Xoo+++++++++++++++oo+++OO###OO##OO....XX......  .",
"...............Xoo+++++++++++++++oo+++OO+##OO##OO....XX......  .",
"...XXXX..XXXXXXXoo+++++++++++++++oo+++OO+##OO##OO..XXXXXX....  .",
"...XXXX..XXXXXXXoo+++++++++++++++oo+++oO+##OO##OO..XXXXXX....  .",
".@@XXXXXXXXXXXX@oo+++++++++++++++oo+++oo+##OO##OO@@XXXXXX@@..  .",
".@@XXXXXXXXXXXX@oo+++++++++++++++oo+++oo+##OO##OO@@XXXXXX@@..  .",
"@@@@@XXXXXXXX@@@oo+++++++++++++++oo+++oo+##OO##OOXXXXXX@@@@@@  @",
"@@@@@XXXXXXXX@@@oo+++++++++++++++oo+++oo###OO##OOXXXXXX@@@@@@  @",
"@@@@@@@XX@@@@@@@oo+++++++++++++++++++++########OO@@XX@@@@@@@@  @",
"@@@@@@@XX@@@@@@@oo+++++++++++++++++++++########OO@@XX@@@@@@@@  @",
" @@@@@@@@@@@@@@@ooo++++++++++++++++++++########OO@@@@@@@@@@     ",
" @@@@@@@@@@@@@@@@oo++++++++++++++++++++########OO@@@@@@@@@@     ",
"                 ooo++++++++++++++++++#########OO               ",
"                  ooo+++++++++++++++++########OOO               ",
".............      oooo+++++++++++++++######OOOO ...............",
".............      .oooo+++++++ooooooOOOOOOOOOO  ...............",
"...XX..........  ...oooo$$$$$$$$oooooooooOOOOO ............XX...",
"...XX..........oooooooo++++$$$$$$$$$$$$$$+##OOOOOO.........XX...",
".XXXXXXXXXXXX.oooooooooo++++++++++++++++++##OOOOOOOXXXX..XXXXXX.",
".XXXXXXXXXXXXooo%%O%OOooo++++++++++++++++###OO&&OOOOXXX..XXXXXX.",
"XXXXXXXXX@@Xooo%%%%OOOOoo++++++++++++++++###OO&&&OOOOXXXXXXXXXXX",
"XXXXXXXXX@@Xoo%%%%%%OOOooo++++++++++++++++##OO&&&&OOOXXXXXXXXXXX",
"@@@@@@@@@@@@oo%%%%%O%OOOoo++++++++++++++++##OO&&&&&OO@@@@@@XXXX@",
"@@@@@@@@@@@@oo%%%%%%OO%Ooo++++++++++++++++##OO&&&&&OO@@@@@@XXXX@",
"@@@@@@@@@@@@oo%%%%%%%%O%oo+++++++++++++++###OO&&&&&OO@@@@@@@@@@@",
"@@@@@@@@@@@@oo%%%%%%%%%ooo++++++++++++++++##OO&&&&OOO@@@@@@@@@@@",
"            ooo%%%%%%%%ooo+++++++++++++++###OO&&&OOOO           ",
"            oooo%%%%%%ooo++++++++++++++++##OOOOOOOOO            ",
"   ..........oooooooooooo+++++++++++++++##OOOOOOOOO..........   ",
"   ...........ooooooooooooooooooooooooooOOOO.................   ",
" ............XXXX.......ooooooooooooooooOOO......XXXX.......... ",
" ............XXXX.......oo$$++++++oo+++##OO......XXXX.......... ",
" ....XX..XXXXXXXXXX..XX.oo$$++++++oo+++##OOXX..XXXXXXXX..XX.... ",
" ....XX..XXXXXXXXXX..XX.oo$$++++++OO+++##OOXX..XXXXXXXX..XX.... ",
" ..@@XXXXXXXX@@@@XXXXXX@oo$$++++++OO+++##OOXXXXXXXXXXXXXXXX@@.. ",
" ..@@XXXXXXXX@@@@XXXXXX@oo$$++++++OO+++##OOXXXXXXXXXXXXXXXX@@.. ",
" @@@@@@XXXX@@@@XXXXXX@@@oo$$++++++OO+++##OO@@XXXXXXXXXXXX@@@@@@ ",
" @@@@@@XXXX@@@@XXXXXX@@@oo$$++++++OO++##OOO@@XXXXXXXXXXXX@@@@@@ ",
" @@@@@@@@@@@@@@@@@@@@@@@oo$$$+++++OO++##OO@@@@@@@@@XXXX@@@@@@@@ ",
" @@@@@@@@@@@@@@@@@@@@@@@ooo$$$+++OOOOOOOOO@@@@@@@@@XXXX@@@@@@@@ ",
"   @@@@@@@@@@@@@@@@@@@@@@ooooOOOOOOOOOOOO@@@@@@@@@@@@@@@@@@@@   ",
"   @@@@@@@@@@@@@@@@@@@@@@ oooOOOOO@@@@@@@@@@@@@@@@@@@@@@@@@@@   "
};
