/* XPM */
static char *_[] = {
/* columns rows colors chars-per-pixel */
"64 64 11 1 ",
"  c #2F2E2F",
". c #564064",
"X c #3E2F5A",
"o c black",
"O c #222034",
"+ c #39314B",
"@ c #696A6A",
"# c #929292",
"$ c #494949",
"% c #0C0B12",
"& c #363252",
/* pixels */
"                                                                ",
"                                                                ",
".....      ............................      ...................",
".....      ............................      ...................",
".......  ......XX................XX......  ............XX.......",
".......  ......XX................XX......  ............XX.......",
"XXX....  ....XXXXXXXX..XXXXXX..XXXXXX....  ....XXXX..XXXXXXXX..X",
"XXX....  ....XXXXXXXX..XXooOOOOOOOOXX....  ....XXXX..XXXXXXXX..X",
"XXXXX..  ..XXXXXXXXXXXXooooOOOOOOOOOOOX..  ..XXXXXXXXXX++XXXX++X",
"XXXXX..  ..XXXXXXXXXXoooooo@@@@@@@OOOOOO.  ..XXXXXXXXXX++XXXX++X",
"XXXXX++  ++XXXXXXXXoooooo@@@@@@@@@##OOOOOO ++XXXXXXXX++++XXXXXX+",
"XXXXX++  ++XXXXXXXooooo@@@@@@@@@@@@###OOOOO++XXXXXXXX++++XXXXXX+",
"XXX++++  ++++XXXXoooo@@@@@@@@@@@@@@#####OOOO+++XX++++++XXXX++XXX",
"XXX++++  ++++XXXXoo@@@@@@@@@@@@@@@@@#####OOO+++XX++++++XXXX++XXX",
"X++++++  ++++++Xooo@@@@@@@@@@@@@@@@@######OOO++++++++++++++++++X",
"X++++++  ++++++Xoo@@@@@@@@@@@@@@@@@@@#####OOO++++++++++++++++++X",
"+++++      ++++ooo@@@@@@@@@@@@@@@@@@@######OOO++++++++++++++++++",
"+++++      ++++oo@@@@@@@@@@@@@@@@@@@@@#####OOO++++++++++++++++++",
"               oo@@@@@@@@@@@@@@@@@@@@@######OOO                 ",
"               oo@@@@@@@@@@@@@@@@@@@@@@#####OOO                 ",
" ..............oo@@@@@@@@@@@@@@@@@@@@@@######OO............     ",
" ..............oo@@@@@@@@@@@@@@@@@@@@@@######OOO...........     ",
"...............oo@@@@@@@@@@@@@@@@@@@@@@######OOO.....XX......  .",
"...............oo@@@@@@@@@@@@@@@oo@@@OO###OO##OO.....XX......  .",
"...XXXX..XXXXXXoo@@@@@@@@@@@@@@@oo@@@OO@##OO##OOX..XXXXXX....  .",
"...XXXX..XXXXXXoo@@@@@@@@@@@@@@@oo@@@OO@##OO##OOX..XXXXXX....  .",
".++XXXXXXXXXXXXoo@@@@@@@@@@@@@@@oo@@@oO@##OO##OOX++XXXXXX++..  .",
".++XXXXXXXXXXXXoo@@@@@@@@@@@@@@@oo@@@oo@##OO##OOX++XXXXXX++..  .",
"+++++XXXXXXXX++oo@@@@@@@@@@@@@@@oo@@@oo@##OO##OOXXXXXXX++++++  +",
"+++++XXXXXXXX++oo@@@@@@@@@@@@@@@oo@@@oo@##OO##OOXXXXXXX++++++  +",
"+++++++XX++++++oo@@@@@@@@@@@@@@@oo@@@oo###OO##OO+++XX++++++++  +",
"+++++++XX++++++oo@@@@@@@@@@@@@@@@@@@@@########OO+++XX++++++++  +",
" ++++++++++++++oo@@@@@@@@@@@@@@@@@@@@@########OO+++++++++++     ",
" ++++++++++++++ooo@@@@@@@@@@@@@@@@@@@@########OO+++++++++++     ",
"                oo@@@@@@@@@@@@@@@@@@@@########OO                ",
"                ooo@@@@@@@@@@@@@@@@@@#########OO                ",
".............    ooo@@@@@@@@@@@@@@@@@########OOO ...............",
".............     oooo@@@@@@@@@@@@@@@######OOOO  ...............",
"...XX..........  ..oooo@@@@@@@ooooooOOOOOOOOOO ............XX...",
"...XX..........  ..oooo$$$$$$$$oooooooooOOOOO  ............XX...",
".XXXXXXXXXXXXoooooooo@@@@@$$$$$$$$$$$$$$@##OOOOO...XXXX..XXXXXX.",
".XXXXXXXXXXXoooooooooo@@@@@@@@@@@@@@@@@@@##OOOOOO..XXXX..XXXXXX.",
"XXXXXXXXX++ooo%%O%OOooo@@@@@@@@@@@@@@@@@###OO&OOOO+++XXXXXXXXXXX",
"XXXXXXXXX+ooo%%%%OOOOoo@@@@@@@@@@@@@@@@@###OO&&OOOO++XXXXXXXXXXX",
"++++++++++oo%%%%%%OOOooo@@@@@@@@@@@@@@@@@##OO&&&OOO++++++++XXXX+",
"++++++++++oo%%%%%O%OOOoo@@@@@@@@@@@@@@@@@##OO&&&&OO++++++++XXXX+",
"++++++++++oo%%%%%%OO%Ooo@@@@@@@@@@@@@@@@@##OO&&&&OO+++++++++++++",
"++++++++++oo%%%%%%%%O%oo@@@@@@@@@@@@@@@@###OO&&&&OO+++++++++++++",
"          oo%%%%%%%%%ooo@@@@@@@@@@@@@@@@@##OO&&&OOO             ",
"          ooo%%%%%%%%ooo@@@@@@@@@@@@@@@@###OO&&OOOO             ",
"   .......oooo%%%%%%ooo@@@@@@@@@@@@@@@@@##OOOOOOOO...........   ",
"   ........oooooooooooo@@@@@@@@@@@@@@@@##OOOOOOOO............   ",
" ...........oooooooooooooooooooooooooooOOOO......XXXX.......... ",
" ............XXXX......ooooooooooooooooOOO.......XXXX.......... ",
" ....XX..XXXXXXXXXX..XXoo$$@@@@@@oo@@@##OOXXX..XXXXXXXX..XX.... ",
" ....XX..XXXXXXXXXX..XXoo$$@@@@@@OO@@@##OOXXX..XXXXXXXX..XX.... ",
" ..++XXXXXXXX++++XXXXXXoo$$@@@@@@OO@@@##OO+XXXXXXXXXXXXXXXX++.. ",
" ..++XXXXXXXX++++XXXXXXoo$$@@@@@@OO@@@##OO+XXXXXXXXXXXXXXXX++.. ",
" ++++++XXXX++++XXXXXX++oo$$@@@@@@OO@@@##OO+++XXXXXXXXXXXX++++++ ",
" ++++++XXXX++++XXXXXX++oo$$@@@@@@OO@@##OOO+++XXXXXXXXXXXX++++++ ",
" ++++++++++++++++++++++oo$$$@@@@@OO@@##OO++++++++++XXXX++++++++ ",
" ++++++++++++++++++++++ooo$$$@@@OOOOOOOOO++++++++++XXXX++++++++ ",
"   +++++++++++++++++++++ooooOOOOOOOOOOOO+++++++++++++++++++++   ",
"   ++++++++++++++++++++++oooOOOOO++++++++++++++++++++++++++++   "
};
