/* XPM */
static char *_[] = {
/* columns rows colors chars-per-pixel */
"64 64 11 1 ",
"  c #2F2E2F",
". c #564064",
"X c #3E2F5A",
"o c black",
"O c #222034",
"+ c #39314B",
"@ c #696A6A",
"# c #929292",
"$ c #0C0B12",
"% c #363252",
"& c #494949",
/* pixels */
"                                                                ",
"                                                                ",
".....      ............................      ...................",
".....      ............................      ...................",
".......  ......XX................XX......  ............XX.......",
".......  ......XX................XX......  ............XX.......",
"XXX....  ....XXXXXXXX..XXXXXX..XXXXXX....  ....XXXX..XXXXXXXX..X",
"XXX....  ....XXXXXXXX..XXXXXX..XXXXXX....  ....XXXX..XXXXXXXX..X",
"XXXXX..  ..XXXXXXXXXXXXXXooOOOOOOOOXXXX..  ..XXXXXXXXXX++XXXX++X",
"XXXXX..  ..XXXXXXXXXXXXooooOOOOOOOOOOOX..  ..XXXXXXXXXX++XXXX++X",
"XXXXX++  ++XXXXXXXXXXoooooo@@@@@@@OOOOOO+  ++XXXXXXXX++++XXXXXX+",
"XXXXX++  ++XXXXXXXXoooooo@@@@@@@@@##OOOOOO ++XXXXXXXX++++XXXXXX+",
"XXX++++  ++++XXXXXooooo@@@@@@@@@@@@###OOOOO++++XX++++++XXXX++XXX",
"XXX++++  ++++XXXXoooo@@@@@@@@@@@@@@#####OOOO+++XX++++++XXXX++XXX",
"X++++++  ++++++XXoo@@@@@@@@@@@@@@@@@#####OOO+++++++++++++++++++X",
"X++++++  ++++++Xooo@@@@@@@@@@@@@@@@@######OOO++++++++++++++++++X",
"+++++      +++++oo@@@@@@@@@@@@@@@@@@@#####OOO+++++++++++++++++++",
"+++++      ++++ooo@@@@@@@@@@@@@@@@@@@######OOO++++++++++++++++++",
"               oo@@@@@@@@@@@@@@@@@@@@@#####OOO                  ",
"               oo@@@@@@@@@@@@@@@@@@@@@######OOO                 ",
" ..............oo@@@@@@@@@@@@@@@@@@@@@@#####OOO............     ",
" ..............oo@@@@@@@@@@@@@@@@@@@@@@######OO............     ",
"...............oo@@@@@@@@@@@@@@@@@@@@@@######OOO.....XX......  .",
"...............oo@@@@@@@@@@@@@@@@@@@@@@######OOO.....XX......  .",
"...XXXX..XXXXXXoo@@@@@@@@@@@@@@@oo@@@OO###OO##OOX..XXXXXX....  .",
"...XXXX..XXXXXXoo@@@@@@@@@@@@@@@oo@@@OO@##OO##OOX..XXXXXX....  .",
".++XXXXXXXXXXXXoo@@@@@@@@@@@@@@@oo@@@OO@##OO##OOX++XXXXXX++..  .",
".++XXXXXXXXXXXXoo@@@@@@@@@@@@@@@oo@@@oO@##OO##OOX++XXXXXX++..  .",
"+++++XXXXXXXX++oo@@@@@@@@@@@@@@@oo@@@oo@##OO##OOXXXXXXX++++++  +",
"+++++XXXXXXXX++oo@@@@@@@@@@@@@@@oo@@@oo@##OO##OOXXXXXXX++++++  +",
"+++++++XX++++++oo@@@@@@@@@@@@@@@oo@@@oo@##OO##OO+++XX++++++++  +",
"+++++++XX++++++oo@@@@@@@@@@@@@@@oo@@@oo###OO##OO+++XX++++++++  +",
" ++++++++++++++oo@@@@@@@@@@@@@@@@@@@@@########OO+++++++++++     ",
" ++++++++++++++oo@@@@@@@@@@@@@@@@@@@@@########OO+++++++++++     ",
"               ooo@@@@@@@@@@@@@@@@@@@@########OO                ",
"                oo@@@@@@@@@@@@@@@@@@@@########OO                ",
".............   ooo@@@@@@@@@@@@@@@@@@#########OO ...............",
".............    ooo@@@@@@@@@@@@@@@@@########OOO ...............",
"...XX..........  .oooo@@@@@@@@@@@@@@@######OOOO............XX...",
"...XX..........  ..oooo@@@@@@@ooooooOOOOOOOOOO ............XX...",
".XXXXXXXXXXXooooooooooo@@@@@@@@oooooooooOOOOO  ....XXXX..XXXXXX.",
".XXXXXXXXXXoooooooooo@@@@@@@@@@@@@@@@@@@###OOOO....XXXX..XXXXXX.",
"XXXXXXXXX+ooo$$O$OOooo@@@@@@@@@@@@@@@@@@###OOOOO.++++XXXXXXXXXXX",
"XXXXXXXXXooo$$$$OOOOoo@@@@@@@@@@@@@@@@@@@##OOOOOO++++XXXXXXXXXXX",
"+++++++++oo$$$$$$OOOooo@@@@@@@@@@@@@@@@@@##OO%OOOO+++++++++XXXX+",
"+++++++++oo$$$$$O$OOOoo@@@@@@@@@@@@@@@@@@##OO%%OOO+++++++++XXXX+",
"+++++++++oo$$$$$$OO$Ooo@@@@@@@@@@@@@@@@@###OO%%%OO++++++++++++++",
"+++++++++oo$$$$$$$$O$oo@@@@@@@@@@@@@@@@@@##OO%%%OO++++++++++++++",
"         oo$$$$$$$$$ooo@@@@@@@@@@@@@@@@@###OO%%%OO              ",
"         ooo$$$$$$$$ooo@@@@@@@@@@@@@@@@@##OOO%%OOO              ",
"   ......oooo$$$$$$oooo@@@@@@@@@@@@@@@@##OOOO%OOOO...........   ",
"   .......oooooooooooooooooooooooooooooOOOOOOOOOO............   ",
" ..........oooooooooo..ooooooooooooooooOOO.OOOOO.XXXX.......... ",
" ............XXXX......oo&&@@@@@@oo@@@##OO.......XXXX.......... ",
" ....XX..XXXXXXXXXX..XXoo&&@@@@@@oo@@@##OOXXX..XXXXXXXX..XX.... ",
" ....XX..XXXXXXXXXX..XXoo&&@@@@@@OO@@@##OOXXX..XXXXXXXX..XX.... ",
" ..++XXXXXXXX++++XXXXXXoo&&@@@@@@OO@@@##OO+XXXXXXXXXXXXXXXX++.. ",
" ..++XXXXXXXX++++XXXXXXoo&&@@@@@@OO@@@##OO+XXXXXXXXXXXXXXXX++.. ",
" ++++++XXXX++++XXXXXX++oo&&@@@@@@OO@@@##OO+++XXXXXXXXXXXX++++++ ",
" ++++++XXXX++++XXXXXX++oo&&@@@@@@OO@@##OOO+++XXXXXXXXXXXX++++++ ",
" ++++++++++++++++++++++oo&&&@@@@@OO@@##OO++++++++++XXXX++++++++ ",
" ++++++++++++++++++++++ooo&&&@@@OOOOOOOOO++++++++++XXXX++++++++ ",
"   +++++++++++++++++++++ooooOOOOOOOOOOOO+++++++++++++++++++++   ",
"   ++++++++++++++++++++++oooOOOOO++++++++++++++++++++++++++++   "
};
