/* XPM */
static char *door[] = {
/* columns rows colors chars-per-pixel */
"64 64 238 2 ",
"   c #060505",
".  c #1D141B",
"X  c #1C1819",
"o  c #1C0D15",
"O  c #24151A",
"+  c #261D1D",
"@  c #2B1B1D",
"#  c #2A131B",
"$  c #30111E",
"%  c #311E1C",
"&  c #2A241E",
"*  c #33311F",
"=  c #0D1528",
"-  c #2C1921",
";  c #231C2C",
":  c #281A2B",
">  c #3A1524",
",  c #3D1B24",
"<  c #341A2D",
"1  c #3A1D2B",
"2  c #261D35",
"3  c #291D36",
"4  c #2C2323",
"5  c #2F2E2F",
"6  c #2B2628",
"7  c #322523",
"8  c #372628",
"9  c #3B3327",
"0  c #2F283E",
"q  c #272031",
"w  c #3C2232",
"e  c #32263A",
"r  c #3A2D38",
"t  c #372C37",
"y  c #383430",
"u  c #431C26",
"i  c #451F29",
"p  c #491F27",
"a  c #4C252B",
"s  c #432928",
"d  c #4D2A2B",
"f  c #452328",
"g  c #55252E",
"h  c #542B2C",
"j  c #5B2A2D",
"k  c #58272B",
"l  c #47392C",
"z  c #58332D",
"x  c #442532",
"c  c #4B2B33",
"v  c #532C31",
"b  c #5C2E31",
"n  c #4D3333",
"m  c #4B3A35",
"M  c #453736",
"N  c #533334",
"B  c #5C3334",
"V  c #523C35",
"C  c #5C3A35",
"Z  c #5E3A39",
"A  c #57363A",
"S  c #612E2E",
"D  c #622A26",
"F  c #64332D",
"G  c #663A2E",
"H  c #6B372D",
"J  c #653333",
"K  c #6A3431",
"L  c #613B35",
"P  c #6D3A34",
"I  c #6B3D39",
"U  c #673C39",
"Y  c #753D33",
"T  c #7A3E35",
"R  c #743A38",
"E  c #7B3B39",
"W  c #723539",
"Q  c #6C322F",
"!  c #544235",
"~  c #55433A",
"^  c #5B433B",
"/  c #5B4A3A",
"(  c #5D583F",
")  c #4C4D36",
"_  c #64433A",
"`  c #6C423A",
"'  c #644A3F",
"]  c #6A4A3E",
"[  c #694536",
"{  c #754235",
"}  c #7D4235",
"|  c #74443B",
" . c #7C433A",
".. c #7E4A3A",
"X. c #784939",
"o. c #6C543C",
"O. c #74543F",
"+. c #79513D",
"@. c #7B5131",
"#. c #705C2C",
"$. c #5C6937",
"%. c #737E3A",
"&. c #6A6C3F",
"*. c #332B43",
"=. c #352847",
"-. c #39314B",
";. c #392B52",
":. c #3E2F5A",
">. c #2A2443",
",. c #11264B",
"<. c #44334B",
"1. c #4D3959",
"2. c #234171",
"3. c #5B4943",
"4. c #5B5945",
"5. c #524A4E",
"6. c #614A43",
"7. c #6A4E43",
"8. c #684A46",
"9. c #754F43",
"0. c #6C5345",
"q. c #6C5349",
"w. c #6D5A4B",
"e. c #665945",
"r. c #735442",
"t. c #785641",
"y. c #735945",
"u. c #7C5C45",
"i. c #73554A",
"p. c #755B4C",
"a. c #7B5C4B",
"s. c #7C574A",
"d. c #695B54",
"f. c #755D53",
"g. c #6A6148",
"h. c #7D624D",
"j. c #786848",
"k. c #7C6252",
"l. c #786656",
"z. c #7D7158",
"x. c #564064",
"c. c #7A766E",
"v. c #9B592F",
"b. c #824535",
"n. c #844A36",
"m. c #8B4B35",
"M. c #834639",
"N. c #834B3A",
"B. c #8A4D3A",
"V. c #914D36",
"C. c #85523B",
"Z. c #8C523B",
"A. c #855A37",
"S. c #93543B",
"D. c #9B5538",
"F. c #94593C",
"G. c #9C5B3C",
"H. c #985435",
"J. c #83452D",
"K. c #A15C3A",
"L. c #AB5E39",
"P. c #A15638",
"I. c #9D623E",
"U. c #95613F",
"Y. c #8A7335",
"T. c #9F783E",
"R. c #987235",
"E. c #82772E",
"W. c #A3623D",
"Q. c #A96D3D",
"!. c #A37B3F",
"~. c #865844",
"^. c #915D41",
"/. c #965B41",
"(. c #824F40",
"). c #82634D",
"_. c #876848",
"`. c #946242",
"'. c #9A6744",
"]. c #8A7646",
"[. c #9E7242",
"{. c #937644",
"}. c #836652",
"|. c #866953",
" X c #8C6C55",
".X c #8B6F59",
"XX c #866756",
"oX c #8D7255",
"OX c #8D725C",
"+X c #85775B",
"@X c #94755B",
"#X c #96795F",
"$X c #997A5E",
"%X c #957855",
"&X c #A56842",
"*X c #A47844",
"=X c #897664",
"-X c #927760",
";X c #957B63",
":X c #9A7D63",
">X c #997E6A",
",X c #877F73",
"<X c #AB7F62",
"1X c #71883A",
"2X c #7D8646",
"3X c #83A23E",
"4X c #948B35",
"5X c #858749",
"6X c #948745",
"7X c #87944E",
"8X c #AB8346",
"9X c #A6984A",
"0X c #9F866B",
"qX c #9B8166",
"wX c #91846E",
"eX c #A28465",
"rX c #A2866B",
"tX c #A48A6E",
"yX c #AB8A6A",
"uX c #AD9366",
"iX c #B3956D",
"pX c #A58C72",
"aX c #A88E73",
"sX c #A99677",
"dX c #B59C7D",
"fX c #B69975",
"gX c #BAA27F",
"hX c #C09948",
"jX c #C7AA7E",
"kX c #144185",
"lX c #A89882",
"zX c #BA9E81",
"xX c #BCA584",
"cX c #BAB089",
"vX c #C1A987",
"bX c #C6AE8C",
"nX c #C8AD8F",
"mX c #CFB38E",
/* pixels */
"5 5 5 5 5 5 5 5 5 5 5 5 5 5 5 5 5 5 5 5 5 5 5 5 5 5 5 5 5 5 5 5 5 5 5 5 5 5 5 5 5 5 5 5 5 5 5 5 5 5 5 5 5 5 5 5 5 5 5 5 5 5 5 5 ",
"5 5 5 5 5 5 5 5 5 5 5 5 5 5 5 5 5 5 5 5 5 5 5 5 5 5 5 5 5 5 5 5 5 5 5 5 5 5 5 5 5 5 5 5 5 5 5 5 5 5 5 5 5 5 5 5 5 5 5 5 5 5 5 5 ",
"x.x.x.x.x.5 5 5 5 5 5 x.x.x.x.x.x.x.x.x.x.x.x.x.x.x.x.x.x.x.x.x.x.x.x.x.x.x.x.5 5 5 5 5 5 x.x.x.x.x.x.x.x.x.x.x.x.x.x.x.x.x.x.x.",
"x.x.x.x.x.5 5 5 5 5 5 x.x.x.x.x.x.x.x.x.x.x.x.x.x.x.x.x.x.x.x.x.x.x.x.x.x.x.x.5 5 5 5 5 5 x.x.x.x.x.x.x.x.x.x.x.x.x.x.x.x.x.x.x.",
"x.x.x.x.x.x.x.5 5 x.x.x.x.x.x.:.:.x.x.x.x.x.x.x.x.x.x.x.x.x.x.x.x.:.:.x.x.x.x.x.x.5 5 x.x.x.x.x.x.x.x.x.x.x.x.:.:.x.x.x.x.x.x.x.",
"x.x.x.x.x.x.x.5 5 x.x.x.x.x.x.:.:.x.x.x.x.x.x.x.x.x.x.x.x.x.x.x.x.:.:.x.x.x.x.x.x.5 5 x.x.x.x.x.x.x.x.x.x.x.x.:.:.x.x.x.x.x.x.x.",
":.:.:.x.x.x.x.5 5 x.x.x.x.:.:.:.:.:.:.:.:.x.x.:.:.:.:.:.:.x.x.=.. :.:.:.:.x.x.x.x.5 5 x.x.x.x.:.:.:.:.x.x.:.:.:.:.:.:.:.:.x.x.:.",
":.:.:.x.x.x.x.5 5 x.x.x.x.:.:.:.:.:.:.:.:.x.x.:.:.:.:.:.:.x.<./  Xr ;.:.:.x.x.x.x.5 5 x.x.x.x.:.:.:.:.x.x.:.:.:.:.:.:.:.:.x.x.:.",
":.:.:.:.:.x.x.5 5 x.x.:.:.:.:.:.:.:.:.:.:.:.:.:.:.:.:.:.:.e ~  X Xh.M ;.:.:.:.x.x.5 5 x.x.:.:.:.:.:.:.:.:.:.:.-.-.:.:.:.:.-.-.:.",
":.:.:.:.:.x.x.5 5 x.x.:.:.:.:.:.:.:.:.:.:.:.:.:.:.:.:.:.=.~  X}.eX).h.t :.:.:.x.x.5 5 x.x.:.:.:.:.:.:.:.:.:.:.-.-.:.:.:.:.-.-.:.",
":.:.:.:.:.-.-.5 5 -.-.:.:.:.:.:.:.:.:.:.:.:.:.-.-.-.-.=.m a.0.p.fX6.p.y.r ;.:.-.-.5 5 -.-.:.:.:.:.:.:.:.:.-.-.-.-.:.:.:.:.:.:.-.",
":.:.:.:.:.-.-.5 5 -.-.:.:.:.:.:.:.:.:.:.:.:.:.-.-.-.0 M u.u.}.q.fXp.h.u.y.r :.-.-.5 5 -.-.:.:.:.:.:.:.:.:.-.-.-.-.:.:.:.:.:.:.-.",
":.:.:.-.-.-.-.5 5 -.-.-.-.:.:.:.:.:.:.:.:.-.-.-.-.=.! O.u.).tXq.fX=X#Xa.).t.4 *.-.5 5 -.-.-.-.:.:.-.-.-.-.-.-.:.:.:.:.-.-.:.:.:.",
":.:.:.-.-.-.-.5 5 -.-.-.-.:.:.:.:.:.:.:.:.-.-.-.*.l r.O. X XtXq.fX=X;X X).O.o.4 -.5 5 -.-.-.-.:.:.-.-.-.-.-.-.:.:.:.:.-.-.:.:.:.",
":.-.-.-.-.-.-.5 5 -.-.-.-.-.-.:.:.-.-.-.-.-.-.0 l r.r. X@X:XvXpXc vXdX@X@X).r.r.5 5 5 -.-.-.-.-.-.-.-.-.-.-.-.-.-.-.-.-.-.-.-.:.",
":.-.-.-.-.-.-.5 5 -.-.-.-.-.-.:.:.-.-.-.-.-.0 x o.t.t.u.u.#XxXrX, vXfX|.u.t.t.r._ 8 5 -.-.-.-.-.-.-.-.-.-.-.-.-.-.-.-.-.-.-.-.:.",
"-.-.-.-.-.5 5 5 5 5 5 -.-.-.-.-.-.-.-.-.-.0 M ] ] o.t.h.t.oXeXf.$ rX:X|.u.h.t.^ t._ 6 5 5 -.-.-.-.-.-.-.-.-.-.-.-.-.-.-.-.-.-.-.",
"-.-.-.-.-.5 5 5 5 5 5 -.-.-.-.-.-.-.-.-.*.6.p.>XsX7.t..X X@Xa.N $ _ }.@Xh.}.O.7.vXXXk.6 5 -.-.-.-.-.-.-.-.-.-.-.-.-.-.-.-.-.-.-.",
"5 5 5 5 5 5 5 5 5 5 5 5 5 5 5 5 5 5 5 5 M  X}.sXvXq.u.@X Xp.C $ $ , ' h.$XoX] pXvXqXk.h.6 5 5 5 5 5 5 5 5 5 5 5 5 5 5 5 5 5 5 5 ",
"5 5 5 5 5 5 5 5 5 5 5 5 5 5 5 5 5 5 6 m .X.XdXdXdXdX^ ] ' N > > > > i ^ ' ] q.dXdXxXaX XoX6 5 5 5 5 5 5 5 5 5 5 5 5 5 5 5 5 5 5 ",
"5 x.x.x.x.x.x.x.x.x.x.x.x.x.x.x.x.1.m @XoXoX:X-X-X-Xk.] N , > > > > > , ' ] -X-X-X;X:X@X@X).8 x.x.x.x.x.x.x.x.x.x.x.x.5 5 5 5 5 ",
"5 x.x.x.x.x.x.x.x.x.x.x.x.x.x.x.x.r y.@X@X-X-X-X-X#Xi.N > > > > > > > > u Z }.-X-X-X-X-X@X@X' <.x.x.x.x.x.x.x.x.x.x.x.5 5 5 5 5 ",
"x.x.x.x.x.x.x.x.x.x.x.x.x.x.x.:.;.m @XXXOX-XOXp.k.i.N , > > i > > i , > > u ^  Xq.}.-X-X.X X@Xr 1.x.x.x.x.:.:.x.x.x.x.x.x.5 5 x.",
"x.x.x.x.x.x.x.x.x.x.x.x.x.x.x.;.r @X@XZ p.@Xp.0. Xr > > > g Y > > F F p > > < 3.XX0.XXOXp.i.@Xy.<.x.x.x.x.:.:.x.x.x.x.x.x.5 5 x.",
"x.x.x.:.:.:.:.x.x.:.:.:.:.:.:.*.' @Xa.7.OXp.p. X_ C p i S Y m.u j H b.Y p u k _ t. Xq.p.uXV }.@Xm 1.x.:.:.:.:.:.:.x.x.x.x.5 5 x.",
"x.x.x.:.:.:.:.x.x.:.:.:.:.:.:.r @X Xn @XrX@X Xp.C < J Y Y Y m.> > H b.Y Y P v 1 _ ).oX$X@X~ _ @Xy.e x.:.:.:.:.:.:.x.x.x.x.5 5 x.",
"x.-.-.:.:.:.:.:.:.:.:.:.:.:.:.< L B c -X-X Xa.A 1 Y Y m.Z.b.G.> > H F.Y K.b.Y K w 6.|.OX-Xp.x ` d q -.:.:.:.:.:.:.-.-.x.x.5 5 x.",
"x.-.-.:.:.:.:.:.:.:.:.:.:.:.>.5.c.c 8.-X-XOX0.i ..} n.W.Z.b.K.> > H F.Y W.G.Y B.F c ).-X-X.XA L c.8 -.:.:.:.:.:.:.-.-.x.x.5 5 x.",
"-.-.-.-.-.:.:.:.:.:.:.:.:.-.~ @XaXq.}.-X-Xr.u K S. .B.Z.F.} Y > > j Y b.G.S.R B.S.h i -X-X-Xa.>X0X@X; :.:.:.:.-.-.-.-.-.-.5 5 -.",
"-.-.-.-.-.:.:.:.:.:.:.:.:.-./ $X@X X}.-X-Xf p M.F.n...n.G.b.Y > > j Y B.Z.Z.U S.S.K > _ -X-Xs.@X@X:X; :.:.:.:.-.-.-.-.-.-.5 5 -.",
"-.-.-.-.-.-.-.:.:.-.-.-.-.-.y.eX@Xt.9.-Xq.>.A N.W.K...B.N.m.m.> > j n.B.| F.` K.F.| *.w XXXX] |.@XuX: :.:.-.-.-.-.-.-.-.-.5 5 -.",
"-.-.-.-.-.-.-.:.:.-.-.-.-.*.' @X-X` _ OXr < U | n.K... .M.'.I.> > j I./.I n.` G.| | B : q.a._ a.@X@X8 ;.:.-.-.-.-.-.-.-.-.5 5 -.",
"5 -.-.-.-.-.-.-.-.-.-.-.-.. k.@X}._ ` k.- F B J x v U R hX'. .> > h (.*X8XR A v v J J p - a._ ]  XOX^ 0 -.-.-.-.-.-.-.5 5 5 5 5 ",
"5 -.-.-.-.-.-.-.-.-.-.-.*.M @X@Xh.i.oX=Xu J.{ B.m.m.] {.| | M.> > g M.` ..R.N m.m...} D # eXoX]  X@X}.5 -.-.-.-.-.-.-.5 5 5 5 5 ",
"5 5 5 5 5 5 5 5 5 5 5 5 6 p.@X@Xh.i.aXpXf b.{ Z.D.H.v M.S.S.S.> > g F.B.Z.M.s S.m.M.{ S - nXqX]  X@X@X7 5 5 5 5 5 5 5 5 5 5 5 5 ",
"5 5 5 5 5 5 5 5 5 5 5 5 6 p.@X@Xh.;XdXpXa K d b.b.M.C F.n.F.S.> > g F.B.B.F.8 B.b.K f J - mXtX}. X@X@X7 5 5 5 5 5 5 5 5 5 5 5 5 ",
"x.x.x.x.x.x.x.x.x.x.x.x.*.p.@X@X}.sX-Xl.v V.z b.{ V.C G.M.Z.B.> > g S.N.M.G.s | } K z b.1 -X-X:X X@X@X7 1.x.x.x.x.x.x.x.x.x.x.x.",
"x.x.x.x.x.x.x.x.x.x.x.x.X }. X@X X@X@XO M.P.z b.I V.h B.F.M.B.> > g B. .F.B.8 | { K G D.P ! @X X@X X@X' e x.x.x.x.x.x.x.x.x.x.x.",
"x.x.x.:.:.x.x.x.x.x.x.x.7 @XyX$Xh.p.:XO m.D.z L I S.a B.%X_.B.> > g Z.|.^.M.8 ..B B F K.P 3.OX7. X$XiX@Xe x.x.x.x.x.x.:.:.x.x.x.",
"x.x.x.:.:.x.x.x.x.x.x.x.4 tXyX Xa.@XxXo 1 8 @ @ O % d _.lX-XD.> > F `.wXsX~.o % O @ @ 8 8 g.xX|.a.#XfX#Xe x.x.x.x.x.x.:.:.x.x.x.",
"x.:.:.:.:.:.:.:.:.:.:.:.7 eXeX.Xp.qXbX7 *X8X!.T.T.T.`.lX5.d.@X> > F =X) ,X>X*XT.T.T.*X8X^.d.bX@Xp.eX@X@X2 :.:.x.x.:.:.:.:.:.:.x.",
"x.:.:.:.:.:.:.:.:.:.:.:.7 @XiXfXOXzX;X% &X'.(.+.+.+.N.lX  X _.> > @./   y >XN.+.+.+.~.'.S.m 0XaX;XjX@X@X3 :.:.x.x.:.:.:.:.:.:.x.",
":.:.:.:.:.:.:.:.:.-.-.:.@ }.fXjX-Xl.p.% &XZ N n n N N d.  = #.> > A.l = X 3.N n n n A | S.m i.OXrXmX@X0.: :.:.:.:.:.:.:.:.:.:.:.",
":.:.:.:.:.:.:.:.:.-.-.:.4 M 9 l 9 |.).@ T Q.N.| ..v.S.fX,.2.Y.> > A.4.kXy <XH.v.| | F.W.T m ).~ 9 l 8 e.: :.:.:.:.:.:.:.:.:.:.:.",
"-.-.-.-.-.-.-.-.-.-.-.-.o / uXfXy.0.k.. R W.M.| | S.S.zX*.3.8X> > C {.*.5.yXD.b.| | Z.D.b ! w.7.oXjXoX8 : -.-.-.-.-.-.:.:.:.:.-.",
"-.-.-.-.-.-.-.-.-.-.-.-.@ o.).0X' w.cXO T '.&XQ.`.^.`.>X].{._.> > N ].].%X@X^.`.W.Q.&X/.B c.sX' k.sXo.o.; -.-.-.-.-.-.:.:.:.:.-.",
"-.-.-.-.-.-.-.-.-.-.-.-.+ o.o.;X' w.cXO T I C C L L C.c.j.j.f.> > N l.j.z.XX| L L C L | J c.sX' k.qXo.o.; -.-.-.-.-.-.-.-.-.-.-.",
"-.-.-.-.-.-.-.-.-.-.-.-.+ o.oXaX7.OXl.O } v.z Y b.S. .=Xe.g.wX> > 6.+Xe.l.XX| m.b.B G H.K M f.k.}.gXo.o.; -.-.-.-.-.-.-.-.-.-.-.",
"5 5 5 5 5 5 5 5 5 5 5 5 + 0.xXdX}.dXl.O K V.F m.B.K.P f.+X=Xz.> > N +X+Xz.i.P K.B.Y G b.K l l.0X-XbX0X0.X 5 5 5 5 5 5 5 5 5 5 5 ",
"5 5 5 5 5 5 5 5 5 5 5 5 @ 0.dXbXbXbXrX. j T G L.H.L.a R 3.d.9.> > j p.d.6.R s L.G.m.F K a m dXbXbXbX:Xi.X 5 5 5 5 5 5 5 5 5 5 5 ",
"5 5 5 x.x.x.x.x.x.x.x.x.& y.h.qXbXbXtXo k T j P L.L.d R I.M. .> > b T B.F.E s L.m.B F K , V dXbXdX.X0._.e x.x.x.x.x.x.x.x.5 5 5 ",
"5 5 5 x.x.x.x.x.x.x.x.x.* 9XoX}.pXbXaXO Y b.j P H.L.d E Z...m.> > j n. .F.E s D.b.b S b.J V dXbXOXOXj.9Xe x.x.x.x.x.x.x.x.5 5 5 ",
"5 x.x.x.x.x.x.x.x.x.x.x.. h.gXtXk.@X@X# } M.g b S.L.v E Z...B.> > h Z.| F.E h H...g S M.K ~ @X@X|.gXfX^ 2 x.x.x.x.x.x.x.x.x.x.5 ",
"5 x.x.x.x.x.x.x.x.x.x.x.+ V dXaX}.@X@XO } m.a g S.K.v Z.Z...B.> > j Z.| G.B.d F. .i S m.K ! @X@X.XgX;X^ 2 x.x.x.x.x.x.x.x.x.x.5 ",
"5 x.x.x.x.:.:.x.x.:.:.:.@ + eXrX.X@X@XO b.V.k K M.S.v F.Z.N.Z.> > j Z.| I.Z.d | M.j F V.K ! @X@XOXfX0.~ 3 :.:.x.x.:.:.x.x.x.x.5 ",
"5 x.x.x.x.:.:.x.x.:.:.:.@ 7  X$X@X@X@X@ S.G.[ [ [ Z...G.U.`.Z.> > k F.`.I.G.{ ] [ L X.G.B.! @X@X@X$X/ ) 3 :.:.x.x.:.:.x.x.x.x.5 ",
"5 x.x.-.-.:.:.:.:.:.:.:.+ ( ~ #Xh.@X@X% &X[.[.[.*X^.C.Z.[.*XZ.> > F F.8XZ.Z.C.*X*X[.[.[.F.! @Xh. X@X4 ( 2 :.:.:.:.:.:.-.-.x.x.5 ",
"5 x.x.-.-.:.:.:.:.:.:.:.& 4.g.@Xh.@X~.@ &X&XN.| I I a X.+.] P > > F [ t.+.` i I I | ^.&X/., |.h. XOX( e.2 :.:.:.:.:.:.-.-.x.x.5 ",
"5 -.-.-.-.-.-.:.:.:.:.-.4 5X^ q.].6X~.@ '.L c x x x c Z Z U m.> > F ..Z L L 1 x x x c X.Z.f ).4Xj.6.e.+X2 :.:.:.:.-.-.-.-.-.-.5 ",
"5 -.-.-.-.-.-.:.:.:.:.-.6 7Xj.g.6XY.W @ Y m.b Y m.v c I W.n.S.> > F B.B.F.U 1 b.} J J m.K f W 4X].e.5X7X2 :.:.:.:.-.-.-.-.-.-.5 ",
"5 -.-.-.-.-.-.-.-.-.-.-.* $.7X2X6XY.R O h } P b.D.K L M.Z. .B.> > F M.T G.B.w m.B.{ P K , a E E.5X%.7X2X2 :.:.-.-.-.-.-.-.-.-.5 ",
"5 -.-.-.-.-.-.-.-.-.-.-.9 ) 3Xg.d.R.n.. a } { n.F.L.P K.B.R W > > g R R K.K.h D.M.} { j - a Z.[ w.$.1X5X2 :.:.-.-.-.-.-.-.-.-.5 ",
"5 5 5 -.-.-.-.-.-.-.-.-.. %.$.1Xw.A M.O g H { B.S.L.G G.R b.b.> > g m.T  .G.d H.n.N.P D u a C.p.( 3X) ~ ; -.-.-.-.-.-.-.-.5 5 5 ",
"5 5 5 -.-.-.-.-.-.-.-.-.. A $.1X&.C.n.- j S K K Y L.G D.} m.R > > g } m.T D.d P.K K J S S a Z.O.%.1X4.n ; -.-.-.-.-.-.-.-.5 5 5 "
};
