/* XPM */
static char *_[] = {
/* columns rows colors chars-per-pixel */
"64 64 12 1 ",
"  c #2F2E2F",
". c #564064",
"X c #3E2F5A",
"o c #39314B",
"O c gray98",
"+ c #8B98AA",
"@ c #BFCBD6",
"# c #1D1D31",
"$ c gray80",
"% c #491009",
"& c #702707",
"* c #676C86",
/* pixels */
"                                                                ",
"                                                                ",
".....      ............................      ...................",
".....      ............................      ...................",
".......  ......XX................XX......  ............XX.......",
".......  ......XX................XX......  ............XX.......",
"XXX....  ....XXXXXXXX..XXXXXX..XXXXXX....  ....XXXX..XXXXXXXX..X",
"XXX....  ....XXXXXXXX..XXXXXX..XXXXXX....  ....XXXX..XXXXXXXX..X",
"XXXXX..  ..XXXXXXXXXXXXXXXXXXooXXXXXXXX..  ..XXXXXXXXXXooXXXXooX",
"XXXXX..  ..XXXXXXXXXXXXXXXXXXooXXXXXXXX..  ..XXXXXXXXXXooXXXXooX",
"XXXXXoo  ooXXXXXXXXXXXXooooXXXXooXXXXXXoo  ooXXXXXXXXooooXXXXXXo",
"XXXXXoo  ooXXXXXXXXXXXXooooXXXXooXXXXXXoo  ooXXXXXXXXooooXXXXXXo",
"XXXoooo  ooooXXXXXXXXooooXXXXXXooooXXoooo  ooooXXooooooXXXXooXXX",
"XXXoooo  ooooXXXXXXXXooooXXXXXXooooXXoooo  ooooXXooooooXXXXooXXX",
"Xoooooo  ooooooXXooooooooooXXoooooooooooo  ooooooooooooooooooooX",
"Xoooooo  ooooooXXooooooooooXXoooooooooooo  ooooooooooooooooooooX",
"ooooo      oooooooooooooooooooooooooooo      ooooooooooooooooooo",
"ooooo      oooooooooooooooooooooooooooo      ooooooooooooooooooo",
"                                                                ",
"                             OOOOO                              ",
" ..........................++@OOOOO........................     ",
" .........................+++@@@@OOO.......................     ",
"...............XX.........++++@@@@@OO........XX......XX......  .",
"...............XX.........++++###@@O#........XX......XX......  .",
"...XXXX..XXXXXXXXXXXX..XXX++++####@##XXXX..XXXXXX..XXOXXX....  .",
"...XXXX..XXXXXXXXXXXX..XXX++++####@##XXXX..XXXXXX..XOOXXX....  .",
".ooXXXXXXXXXXXXooXXooXXXXX+++@@@@@#@OXXXXXXXXXXXXooXOXXXXoo..  .",
".ooXXXXXXXXXXXXooXXooXXXXXX+++@@@##@OXXXXXXXXXXXXooOOXXXXoo..  .",
"oooooXXXXXXXXooooXXXXXXXXoo+++@@@@@@oooXXooooXXXXXXOXXXoooooo  o",
"oooooXXXXXXXXooooXXXXXXXXoooo+++#@#@oooXXooooXXXXXOOXXXoooooo  o",
"oooooooXXooooooooooooXXoooooo##+#@#oooooooooooooooO$Xoooooooo  o",
"oooooooXXooooooooooooXXoooooo### ooooooooooooooooOOXXoooooooo  o",
" oooooooooooooooooooooooOOoOOOOOO@@o@@oooooooooooO$oooooooo     ",
" oooooooooooooooooooooo@OOO@###@@@##+@ooooooooooO$ooooooooo     ",
"                       @OOO#OOOOOO@@#@@         O$              ",
"                       @@OOOO###@@##+@@        O$               ",
".............      ....@@O.OOOOOOO@@@+@....    O$...............",
".............      ....@O..OO###@@##++@....   O$ ...............",
"...XX..........  ......@O...OOOOOO@@@+@...... O$...........XX...",
"...XX..........  ......@O...O###@@##+.@@.....O$............XX...",
".XXXXXXXXXXXX..  ..XXXX@OXXXO##OOO@#+X+@X....O$....XXXX..XXXXXX.",
".XXXXXXXXXXXX..  ..XXXX@OXXXXOOO##@@XX+@X%%.$$ ....XXXX..XXXXXX.",
"XXXXXXXXXooXXXX  XXXXXX@OXXXXOO###XXXXX+@%%&$$ ..ooooXXXXXXXXXXX",
"XXXXXXXXXooXXXX  XXXXXXX@OXXXo###XXXXXXo+@%%&& ..ooooXXXXXXXXXXX",
"ooooooooooooooo  ooooooo@Oooo**##**oooooo+%@@&&ooooooooooooXXXXo",
"ooooooooooooooo  oooooooo@O@@@*****OOoooo%%@o  ooooooooooooXXXXo",
"ooooooooooooo      oooooo@OO*@OO**OOOoooo%%      ooooooooooooooo",
"ooooooooooooo      oooooo@@O##@@OOOOooooo%&      ooooooooooooooo",
"                         @ @OO#*@@@#                            ",
"                           @OOO**@#**                           ",
"   ......................   OOO...***........................   ",
"   ......................  @@O ....*+........................   ",
" ............XXXX..........@O......++............XXXX.......... ",
" ............XXXX..........O .......++...........XXXX.......... ",
" ....XX..XXXXXXXXXX..XX...@O ....XXX++.XXXXXX..XXXXXXXX..XX.... ",
" ....XX..XXXXXXXXXX..XX...@O ....XXX++.XXXXXX..XXXXXXXX..XX.... ",
" ..ooXXXXXXXXooooXXXXXXoo.@O ..ooXXXX++XXooXXXXXXXXXXXXXXXXoo.. ",
" ..ooXXXXXXXXooooXXXXXXoo@O  ..ooXXXX*+XXooXXXXXXXXXXXXXXXXoo.. ",
" ooooooXXXXooooXXXXXXoooo@O  ooooooXXX*ooooooXXXXXXXXXXXXoooooo ",
" ooooooXXXXooooXXXXXXoooo@O  ooooooXX*XooooooXXXXXXXXXXXXoooooo ",
" ooooooooooooooooooooooo@Oo  oooooooo**ooooooooooooXXXXoooooooo ",
" ooooooooooooooooooooooo@Oo  oooooooo**ooooooooooooXXXXoooooooo ",
"   oooooooooooooooooooo@@O     oooooo***ooooooooooooooooooooo   ",
"   oooooooooooooooooooo@@OO    oooooo****oooooooooooooooooooo   "
};
