/* XPM */
static char *_[] = {
/* columns rows colors chars-per-pixel */
"64 64 12 1 ",
"  c #2F2E2F",
". c #564064",
"X c #3E2F5A",
"o c #39314B",
"O c gray98",
"+ c #8B98AA",
"@ c #BFCBD6",
"# c #1D1D31",
"$ c gray80",
"% c #491009",
"& c #702707",
"* c #676C86",
/* pixels */
"                                                                ",
"                                                                ",
".....      ............................      ...................",
".....      ............................      ...................",
".......  ......XX................XX......  ............XX.......",
".......  ......XX................XX......  ............XX.......",
"XXX....  ....XXXXXXXX..XXXXXX..XXXXXX....  ....XXXX..XXXXXXXX..X",
"XXX....  ....XXXXXXXX..XXXXXX..XXXXXX....  ....XXXX..XXXXXXXX..X",
"XXXXX..  ..XXXXXXXXXXXXXXXXXXooXXXXXXXX..  ..XXXXXXXXXXooXXXXooX",
"XXXXX..  ..XXXXXXXXXXXXXXXXXXooXXXXXXXX..  ..XXXXXXXXXXooXXXXooX",
"XXXXXoo  ooXXXXXXXXXXXXooooXXXXooXXXXXXoo  ooXXXXXXXXooooXXXXXXo",
"XXXXXoo  ooXXXXXXXXXXXXooooXXXXooXXXXXXoo  ooXXXXXXXXooooXXXXXXo",
"XXXoooo  ooooXXXXXXXXooooXXXXXXooooXXoooo  ooooXXooooooXXXXooXXX",
"XXXoooo  ooooXXXXXXXXooooXXXXXXooooXXoooo  ooooXXooooooXXXXooXXX",
"Xoooooo  ooooooXXooooooooooXXoooooooooooo  ooooooooooooooooooooX",
"Xoooooo  ooooooXXooooooooooXXoooooooooooo  ooooooooooooooooooooX",
"ooooo      oooooooooooooooooooooooooooo      ooooooooooooooooooo",
"ooooo      oooooooooooooooooooooooooooo      ooooooooooooooooooo",
"                             OOOOO                              ",
"                           ++@OOOOO                             ",
" .........................+++@@@@OOO.......................     ",
" .........................++++@@@@@OO......................     ",
"...............XX.........++++###@@O#........XX......XX......  .",
"...............XX.........++++####@##........XX......OX......  .",
"...XXXX..XXXXXXXXXXXX..XXX++++####@##XXXX..XXXXXX..XOOXXX....  .",
"...XXXX..XXXXXXXXXXXX..XXX+++@@@@@#@OXXXX..XXXXXX..XOXXXX....  .",
".ooXXXXXXXXXXXXooXXooXXXXXX+++@@@##@OXXXXXXXXXXXXooOOXXXXoo..  .",
".ooXXXXXXXXXXXXooXXooXXXXXX+++@@@@@@oXXXXXXXXXXXXooOXXXXXoo..  .",
"oooooXXXXXXXXooooXXXXXXXXoooo+++#@#@oooXXooooXXXXXOOXXXoooooo  o",
"oooooXXXXXXXXooooXXXXXXXXoooo##+#@#ooooXXooooXXXXXO$XXXoooooo  o",
"oooooooXXooooooooooooXXoooooo### ooooooooooooooooOOXXoooooooo  o",
"oooooooXXooooooooooooXXoOOoOOOOOO@@o@@oooooooooooO$XXoooooooo  o",
" oooooooooooooooooooooo@OOO@###@@@##+@ooooooooooO$ooooooooo     ",
" oooooooooooooooooooooo@OOO#OOOOOO@@#@@oooooooooO$ooooooooo     ",
"                       @@O OO###@@##+@@        O$               ",
"                       @O  OOOOOOO@@@+@        O$               ",
".............      ....@O..OO###@@##++@....   O$ ...............",
".............      ....@O...OOOOOO@@@+@....   O$ ...............",
"...XX..........  .....@O....O###@@##+.@@.....O$............XX...",
"...XX..........  .....@O....O##OOO@#+.+@.....O$............XX...",
".XXXXXXXXXXXX..  ..XXX@O.XXXXOOO##@@XX+@X%%.$$ ....XXXX..XXXXXX.",
".XXXXXXXXXXXX..  ..XXX@O.XXXXOO###.XXXX+@%%&$$ ....XXXX..XXXXXX.",
"XXXXXXXXXooXXXX  XXXXX@OXXXXXo###XXXXXXo+@%%&& ..ooooXXXXXXXXXXX",
"XXXXXXXXXooXXXX  XXXXXX@OXXXX**##**XXXXoo+%@@&&..ooooXXXXXXXXXXX",
"ooooooooooooooo  oooooo@Ooo@@@*****OOoooo%%@o  ooooooooooooXXXXo",
"ooooooooooooooo  oooooo@OOo**@OO**OOOoooo%%oo  ooooooooooooXXXXo",
"ooooooooooooo      oooo@@Ooo##@@OOOOooooo%&      ooooooooooooooo",
"ooooooooooooo      oooo@oooo@O#*@@@#ooooooo      ooooooooooooooo",
"                            @OO**@#*                            ",
"                            @OOO ***                            ",
"   ......................    @O..***.........................   ",
"   ......................    @O...*+.........................   ",
" ............XXXX..........  O....++.............XXXX.......... ",
" ............XXXX.......... @O....++.............XXXX.......... ",
" ....XX..XXXXXXXXXX..XX.... @O...X++X..XXXXXX..XXXXXXXX..XX.... ",
" ....XX..XXXXXXXXXX..XX....@O....XX++..XXXXXX..XXXXXXXX..XX.... ",
" ..ooXXXXXXXXooooXXXXXXoo..@O..ooXX++XXXXooXXXXXXXXXXXXXXXXoo.. ",
" ..ooXXXXXXXXooooXXXXXXoo.@O ..ooXX*+XXXXooXXXXXXXXXXXXXXXXoo.. ",
" ooooooXXXXooooXXXXXXoooooO  ooooooX*XXooooooXXXXXXXXXXXXoooooo ",
" ooooooXXXXooooXXXXXXoooo@O  oooooo*XXXooooooXXXXXXXXXXXXoooooo ",
" ooooooooooooooooooooooo@OO  oooooo**ooooooooooooooXXXXoooooooo ",
" ooooooooooooooooooooooo@Oo  oooooo**ooooooooooooooXXXXoooooooo ",
"   ooooooooooooooooooooo@O     oooo***ooooooooooooooooooooooo   ",
"   oooooooooooooooooooooo      oooo****oooooooooooooooooooooo   "
};
