/* XPM */
static char *_[] = {
/* columns rows colors chars-per-pixel */
"64 64 12 1 ",
"  c #2F2E2F",
". c #564064",
"X c #3E2F5A",
"o c #39314B",
"O c gray98",
"+ c #8B98AA",
"@ c #BFCBD6",
"# c #1D1D31",
"$ c gray80",
"% c #491009",
"& c #702707",
"* c #676C86",
/* pixels */
"                                                                ",
"                                                                ",
".....      ............................      ...................",
".....      ............................      ...................",
".......  ......XX................XX......  ............XX.......",
".......  ......XX................XX......  ............XX.......",
"XXX....  ....XXXXXXXX..XXXXXX..XXXXXX....  ....XXXX..XXXXXXXX..X",
"XXX....  ....XXXXXXXX..XXXXXX..XXXXXX....  ....XXXX..XXXXXXXX..X",
"XXXXX..  ..XXXXXXXXXXXXXXXXXXooXXXXXXXX..  ..XXXXXXXXXXooXXXXooX",
"XXXXX..  ..XXXXXXXXXXXXXXXXXXooXXXXXXXX..  ..XXXXXXXXXXooXXXXooX",
"XXXXXoo  ooXXXXXXXXXXXXooooXXXXooXXXXXXoo  ooXXXXXXXXooooXXXXXXo",
"XXXXXoo  ooXXXXXXXXXXXXooooXXXXooXXXXXXoo  ooXXXXXXXXooooXXXXXXo",
"XXXoooo  ooooXXXXXXXXooooXXXXXXooooXXoooo  ooooXXooooooXXXXooXXX",
"XXXoooo  ooooXXXXXXXXooooXXXXXXooooXXoooo  ooooXXooooooXXXXooXXX",
"Xoooooo  ooooooXXooooooooooXXoooooooooooo  ooooooooooooooooooooX",
"Xoooooo  ooooooXXooooooooooXXoooooooooooo  ooooooooooooooooooooX",
"ooooo      oooooooooooooooooooooooooooo      ooooooooooooooooooo",
"ooooo      oooooooooooooooooooOOOOOoooo      ooooooooooooooooooo",
"                            ++@OOOOO                            ",
"                           +++@@@@OOO                           ",
" ..........................++++@@@@@OO.....................     ",
" ..........................++++###@@O#.....................     ",
"...............XX..........++++####@##.......XX......XXO.....  .",
"...............XX..........++++####@##.......XX......XOO.....  .",
"...XXXX..XXXXXXXXXXXX..XXXX+++@@@@@#@OXXX..XXXXXX..XXXOXX....  .",
"...XXXX..XXXXXXXXXXXX..XXXX.+++@@@##@OXXX..XXXXXX..XXOOXX....  .",
".ooXXXXXXXXXXXXooXXooXXXXXXo+++@@@@@@XXXXXXXXXXXXooXXOXXXoo..  .",
".ooXXXXXXXXXXXXooXXooXXXXXXoo.+++#@#@XXXXXXXXXXXXooXOOXXXoo..  .",
"oooooXXXXXXXXooooXXXXXXXXooooo##+#@#oooXXooooXXXXXXXO$Xoooooo  o",
"oooooXXXXXXXXooooXXXXXXXXooooo###ooooooXXooooXXXXXXOOXXoooooo  o",
"oooooooXXooooooooooooXXooOOoOOOOOO@@o@@@oooooooooooO$oooooooo  o",
"oooooooXXooooooooooooXXo@OOO@###@@@##++@ooooooooooO$Xoooooooo  o",
" ooooooooooooooooooooooo@OOO#OOOOOO@@#+@@oooooooooO$ooooooo     ",
" ooooooooooooooooooooooo@@OoOO###@@##+o@@ooooooooO$oooooooo     ",
"                        @O  OOOOOOO@@@ +@        O$             ",
"                        @O  OO###@@##+ +@       O$              ",
".............      .....@O...OOOOOO@@@.+@..     O$..............",
".............      .....@O...O###@@##+..@@.    O$...............",
"...XX..........  .......@O...O##OOO@#+..+@...  O$..........XX...",
"...XX..........  ......@O....XOOO##@@...+@.%% $$...........XX...",
".XXXXXXXXXXXX..  ..XXXX@OXXXXXOO###XXXXXX+@%%&$$...XXXX..XXXXXX.",
".XXXXXXXXXXXX..  ..XXXX@OXXXXXX###.XXXXXX.+@%%&&...XXXX..XXXXXX.",
"XXXXXXXXXooXXXX  XXXXXX@OXXXXo**##**XXXoooo+%@@&&ooooXXXXXXXXXXX",
"XXXXXXXXXooXXXX  XXXXXX@OXXX@@@*****OOXoooo%%@ ..ooooXXXXXXXXXXX",
"ooooooooooooooo  oooooo@OOoo**@OO**OOOooooo%%  ooooooooooooXXXXo",
"ooooooooooooooo  oooooo@@Oooo##@@OOOOoooooo%&  ooooooooooooXXXXo",
"ooooooooooooo      oooo@ooooo@O#*@@@#oooooo      ooooooooooooooo",
"ooooooooooooo      oooooooooo@OO**@#*oooooo      ooooooooooooooo",
"                             @OOO****                           ",
"                              @OO****                           ",
"   ......................      OOO**.........................   ",
"   ......................      .OO*+.........................   ",
" ............XXXX..........  ...@O++.............XXXX.......... ",
" ............XXXX..........  ...@O++.............XXXX.......... ",
" ....XX..XXXXXXXXXX..XX....  ...@O++X..XXXXXX..XXXXXXXX..XX.... ",
" ....XX..XXXXXXXXXX..XX....  ..@OX++X..XXXXXX..XXXXXXXX..XX.... ",
" ..ooXXXXXXXXooooXXXXXXoo..  .@@OX++XXXXXooXXXXXXXXXXXXXXXXoo.. ",
" ..ooXXXXXXXXooooXXXXXXoo..  .@OoX*+XXXXXooXXXXXXXXXXXXXXXXoo.. ",
" ooooooXXXXooooXXXXXXoooooo @@Ooooo*XXXooooooXXXXXXXXXXXXoooooo ",
" ooooooXXXXooooXXXXXXoooooo @Ooooo*XXXXooooooXXXXXXXXXXXXoooooo ",
" oooooooooooooooooooooooooo @Ooooo**oooooooooooooooXXXXoooooooo ",
" oooooooooooooooooooooooooo  ooooo**oooooooooooooooXXXXoooooooo ",
"   oooooooooooooooooooooo      ooo***oooooooooooooooooooooooo   ",
"   oooooooooooooooooooooo      ooo****ooooooooooooooooooooooo   "
};
