/* XPM */
static char *_[] = {
/* columns rows colors chars-per-pixel */
"64 64 12 1 ",
"  c #2F2E2F",
". c #564064",
"X c #3E2F5A",
"o c #39314B",
"O c gray98",
"+ c #8B98AA",
"@ c #BFCBD6",
"# c #1D1D31",
"$ c gray80",
"% c #491009",
"& c #702707",
"* c #676C86",
/* pixels */
"                                                                ",
"                                                                ",
".....      ............................      ...................",
".....      ............................      ...................",
".......  ......XX................XX......  ............XX.......",
".......  ......XX................XX......  ............XX.......",
"XXX....  ....XXXXXXXX..XXXXXX..XXXXXX....  ....XXXX..XXXXXXXX..X",
"XXX....  ....XXXXXXXX..XXXXXX..XXXXXX....  ....XXXX..XXXXXXXX..X",
"XXXXX..  ..XXXXXXXXXXXXXXXXXXooXXXXXXXX..  ..XXXXXXXXXXooXXXXooX",
"XXXXX..  ..XXXXXXXXXXXXXXXXXXooXXXXXXXX..  ..XXXXXXXXXXooXXXXooX",
"XXXXXoo  ooXXXXXXXXXXXXooooXXXXooXXXXXXoo  ooXXXXXXXXooooXXXXXXo",
"XXXXXoo  ooXXXXXXXXXXXXooooXXXXooXXXXXXoo  ooXXXXXXXXooooXXXXXXo",
"XXXoooo  ooooXXXXXXXXooooXXXXXXooooXXoooo  ooooXXooooooXXXXooXXX",
"XXXoooo  ooooXXXXXXXXooooXXXXXXooooXXoooo  ooooXXooooooXXXXooXXX",
"Xoooooo  ooooooXXooooooooooXXoooooooooooo  ooooooooooooooooooooX",
"Xoooooo  ooooooXXooooooooooXXoooooooooooo  ooooooooooooooooooooX",
"ooooo      oooooooooooooooooooOOOOOoooo      ooooooooooooooooooo",
"ooooo      ooooooooooooooooo++@OOOOOooo      ooooooooooooooooooo",
"                           +++@@@@OOO                           ",
"                           ++++@@@@@OO                          ",
" ..........................++++###@@O#.....................     ",
" ..........................++++####@##..................O..     ",
"...............XX..........++++####@##.......XX......XXOO....  .",
"...............XX..........+++@@@@@#@O.......XX......XXO.....  .",
"...XXXX..XXXXXXXXXXXX..XXXX.+++@@@##@OXXX..XXXXXX..XXXOOX....  .",
"...XXXX..XXXXXXXXXXXX..XXXX.+++@@@@@@XXXX..XXXXXX..XXXOXX....  .",
".ooXXXXXXXXXXXXooXXooXXXXXXoo.+++#@#@XXXXXXXXXXXXooXXOOXXoo..  .",
".ooXXXXXXXXXXXXooXXooXXXXXXoo.##+#@#oXXXXXXXXXXXXooXXO$XXoo..  .",
"oooooXXXXXXXXooooXXXXXXXXooooo###ooooooXXooooXXXXXXXOOXoooooo  o",
"oooooXXXXXXXXooooXXXXXXXXOOoOOOOOO@@oo@@XooooXXXXXXXO$Xoooooo  o",
"oooooooXXooooooooooooXXo@OOO@###@@@##++@oooooooooooO$oooooooo  o",
"oooooooXXooooooooooooXXo@OOO#OOOOOO@@#+@@ooooooooooO$oooooooo  o",
" ooooooooooooooooooooooo@@OoOO###@@##+o@@oooooooooO$ooooooo     ",
" ooooooooooooooooooooooo@OooOOOOOOO@@@o+@oooooooooO$ooooooo     ",
"                        @O  OO###@@##+ +@        O$             ",
"                       @O    OOOOOO@@@  @@       O$             ",
".............      ....@O....O###@@##+..+@.     O$..............",
".............      ....@O....O##OOO@#+..+@.     O$..............",
"...XX..........  ......@O....XOOO##@@....+@.%% $$..........XX...",
"...XX..........  .....@O.....XOO###.......+@%%&$$..........XX...",
".XXXXXXXXXXXX..  ..XXX@O.XXXXXX###.XXXXXX..+@%%&&..XXXX..XXXXXX.",
".XXXXXXXXXXXX..  ..XXX@O.XXXXX**##**XXXXX...+%@@&&.XXXX..XXXXXX.",
"XXXXXXXXXooXXXX  XXXXX@OXXXX@@@*****OOXoooo.%%@..ooooXXXXXXXXXXX",
"XXXXXXXXXooXXXX  XXXXX@OOXXX**@OO**OOOXoooo.%% ..ooooXXXXXXXXXXX",
"ooooooooooooooo  ooooo@@Ooooo##@@OOOOooooooo%& ooooooooooooXXXXo",
"ooooooooooooooo  ooooo@ooooooOOO#@@@#oooooooo  ooooooooooooXXXXo",
"ooooooooooooo      oooooooooo@OOO*@#*oooooo      ooooooooooooooo",
"ooooooooooooo      oooooooooo@OOO****oooooo      ooooooooooooooo",
"                              @OOO***                           ",
"                              @@OOO**                           ",
"   ......................      .@OO*.........................   ",
"   ......................      ..*OO.........................   ",
" ............XXXX..........  ....+@O.............XXXX.......... ",
" ............XXXX..........  ...++@OO............XXXX.......... ",
" ....XX..XXXXXXXXXX..XX....  ...++@@O..XXXXXX..XXXXXXXX..XX.... ",
" ....XX..XXXXXXXXXX..XX....  ...++X@O..XXXXXX..XXXXXXXX..XX.... ",
" ..ooXXXXXXXXooooXXXXXXoo..  ..o++X@OXXXXooXXXXXXXXXXXXXXXXoo.. ",
" ..ooXXXXXXXXooooXXXXXXoo..  ..+++@OXXXXXooXXXXXXXXXXXXXXXXoo.. ",
" ooooooXXXXooooXXXXXXoooooo  oo*+o@OXXXooooooXXXXXXXXXXXXoooooo ",
" ooooooXXXXooooXXXXXXoooooo  ooo*o@OXXXooooooXXXXXXXXXXXXoooooo ",
" oooooooooooooooooooooooooo  oo*oo@@oooooooooooooooXXXXoooooooo ",
" oooooooooooooooooooooooooo  oo**ooooooooooooooooooXXXXoooooooo ",
"   oooooooooooooooooooooo      ***ooooooooooooooooooooooooooo   ",
"   oooooooooooooooooooooo      ****oooooooooooooooooooooooooo   "
};
