/* XPM */
static char *_[] = {
/* columns rows colors chars-per-pixel */
"64 64 12 1 ",
"  c #2F2E2F",
". c #564064",
"X c #3E2F5A",
"o c #39314B",
"O c gray98",
"+ c #8B98AA",
"@ c #BFCBD6",
"# c #1D1D31",
"$ c gray80",
"% c #491009",
"& c #702707",
"* c #676C86",
/* pixels */
"                                                                ",
"                                                                ",
".....      ............................      ...................",
".....      ............................      ...................",
".......  ......XX................XX......  ............XX.......",
".......  ......XX................XX......  ............XX.......",
"XXX....  ....XXXXXXXX..XXXXXX..XXXXXX....  ....XXXX..XXXXXXXX..X",
"XXX....  ....XXXXXXXX..XXXXXX..XXXXXX....  ....XXXX..XXXXXXXX..X",
"XXXXX..  ..XXXXXXXXXXXXXXXXXXooXXXXXXXX..  ..XXXXXXXXXXooXXXXooX",
"XXXXX..  ..XXXXXXXXXXXXXXXXXXooXXXXXXXX..  ..XXXXXXXXXXooXXXXooX",
"XXXXXoo  ooXXXXXXXXXXXXooooXXXXooXXXXXXoo  ooXXXXXXXXooooXXXXXXo",
"XXXXXoo  ooXXXXXXXXXXXXooooXXXXooXXXXXXoo  ooXXXXXXXXooooXXXXXXo",
"XXXoooo  ooooXXXXXXXXooooXXXXXXooooXXoooo  ooooXXooooooXXXXooXXX",
"XXXoooo  ooooXXXXXXXXooooXXXXXXooooXXoooo  ooooXXooooooXXXXooXXX",
"Xoooooo  ooooooXXooooooooooXXoooooooooooo  ooooooooooooooooooooX",
"Xoooooo  ooooooXXooooooooooXXoooooooooooo  ooooooooooooooooooooX",
"ooooo      ooooooooooooooooooOOOOOooooo      ooooooooooooooooooo",
"ooooo      oooooooooooooooo++@OOOOOoooo      ooooooooooooooooooo",
"                          +++@@@@OOO                            ",
"                          ++++@@@@@OO                           ",
" .........................++++###@@O#......................     ",
" .........................++++####@##..................O...     ",
"...............XX.........++++####@##........XX......XOO.....  .",
"...............XX.........+++@@@@@#@O........XX......XO......  .",
"...XXXX..XXXXXXXXXXXX..XXXX+++@@@##@OXXXX..XXXXXX..XXOOXX....  .",
"...XXXX..XXXXXXXXXXXX..XXXX+++@@@@@@.XXXX..XXXXXX..XXOXXX....  .",
".ooXXXXXXXXXXXXooXXooXXXXXXoo+++#@#@oXXXXXXXXXXXXooXOOXXXoo..  .",
".ooXXXXXXXXXXXXooXXooXXXXXXoo##+#@#ooXXXXXXXXXXXXooXO$XXXoo..  .",
"oooooXXXXXXXXooooXXXXXXXXoooo### ooooooXXooooXXXXXXOOXXoooooo  o",
"oooooXXXXXXXXooooXXXXXXXOOoOOOOOO@@oo@@XXooooXXXXXXO$XXoooooo  o",
"oooooooXXooooooooooooXX@OOO@###@@@##++@oooooooooooO$Xoooooooo  o",
"oooooooXXooooooooooooXX@OOO#OOOOOO@@#+@@ooooooooooO$Xoooooooo  o",
" oooooooooooooooooooooo@@OoOO###@@##+o@@oooooooooO$oooooooo     ",
" oooooooooooooooooooooo@OooOOOOOOO@@@o+@oooooooooO$oooooooo     ",
"                       @O  OO###@@##+ +@        O$              ",
"                      @O    OOOOOO@@@  @@       O$              ",
".............      ...@O....O###@@##+..+@..    O$...............",
".............      ...@O....O##OOO@#+..+@..    O$...............",
"...XX..........  .....@O.....OOO##@@....+@.%% $$...........XX...",
"...XX..........  ....@O......OO###.......+@%%&$$...........XX...",
".XXXXXXXXXXXX..  ..XX@O..XXXXX###..XXXXXX.+@%%&&...XXXX..XXXXXX.",
".XXXXXXXXXXXX..  ..XX@O..XXXX**##**XXXXXX..+%@@&&..XXXX..XXXXXX.",
"XXXXXXXXXooXXXX  XXXX@OXXXX@@@*****OOXXoooo%%@ ..ooooXXXXXXXXXXX",
"XXXXXXXXXooXXXX  XXXX@OOXXX**@OO**OOOXXoooo%%  ..ooooXXXXXXXXXXX",
"ooooooooooooooo  oooo@@Ooooo##@@OOOOooooooo%&  ooooooooooooXXXXo",
"ooooooooooooooo  oooo@ooooooOOO#@@@#ooooooooo  ooooooooooooXXXXo",
"ooooooooooooo      ooooooooo@OOO*@#*ooooooo      ooooooooooooooo",
"ooooooooooooo      ooooooooo@OOO****ooooooo      ooooooooooooooo",
"                             @OOO***                            ",
"                             @@OOO**                            ",
"   ......................      @OO*..........................   ",
"   ......................      .*OO..........................   ",
" ............XXXX..........  ...+@O..............XXXX.......... ",
" ............XXXX..........  ..++@OO.............XXXX.......... ",
" ....XX..XXXXXXXXXX..XX....  ..++@@OX..XXXXXX..XXXXXXXX..XX.... ",
" ....XX..XXXXXXXXXX..XX....  ..++X@OX..XXXXXX..XXXXXXXX..XX.... ",
" ..ooXXXXXXXXooooXXXXXXoo..  ..++X@OXXXXXooXXXXXXXXXXXXXXXXoo.. ",
" ..ooXXXXXXXXooooXXXXXXoo..  .+++@OXXXXXXooXXXXXXXXXXXXXXXXoo.. ",
" ooooooXXXXooooXXXXXXoooooo  o*+o@OXXXXooooooXXXXXXXXXXXXoooooo ",
" ooooooXXXXooooXXXXXXoooooo  oo*o@OXXXXooooooXXXXXXXXXXXXoooooo ",
" oooooooooooooooooooooooooo  o*oo@@ooooooooooooooooXXXXoooooooo ",
" oooooooooooooooooooooooooo  o**oooooooooooooooooooXXXXoooooooo ",
"   oooooooooooooooooooooo     ***oooooooooooooooooooooooooooo   ",
"   oooooooooooooooooooooo     ****ooooooooooooooooooooooooooo   "
};
