/* XPM */
static char *_[] = {
/* columns rows colors chars-per-pixel */
"64 64 12 1 ",
"  c #2F2E2F",
". c #564064",
"X c #3E2F5A",
"o c #39314B",
"O c gray98",
"+ c #8B98AA",
"@ c #BFCBD6",
"# c #1D1D31",
"$ c gray80",
"% c #491009",
"& c #702707",
"* c #676C86",
/* pixels */
"                                                                ",
"                                                                ",
".....      ............................      ...................",
".....      ............................      ...................",
".......  ......XX................XX......  ............XX.......",
".......  ......XX................XX......  ............XX.......",
"XXX....  ....XXXXXXXX..XXXXXX..XXXXXX....  ....XXXX..XXXXXXXX..X",
"XXX....  ....XXXXXXXX..XXXXXX..XXXXXX....  ....XXXX..XXXXXXXX..X",
"XXXXX..  ..XXXXXXXXXXXXXXXXXXooXXXXXXXX..  ..XXXXXXXXXXooXXXXooX",
"XXXXX..  ..XXXXXXXXXXXXXXXXXXooXXXXXXXX..  ..XXXXXXXXXXooXXXXooX",
"XXXXXoo  ooXXXXXXXXXXXXooooXXXXooXXXXXXoo  ooXXXXXXXXooooXXXXXXo",
"XXXXXoo  ooXXXXXXXXXXXXooooXXXXooXXXXXXoo  ooXXXXXXXXooooXXXXXXo",
"XXXoooo  ooooXXXXXXXXooooXXXXXXooooXXoooo  ooooXXooooooXXXXooXXX",
"XXXoooo  ooooXXXXXXXXooooXXXXXXooooXXoooo  ooooXXooooooXXXXooXXX",
"Xoooooo  ooooooXXooooooooooXXoooooooooooo  ooooooooooooooooooooX",
"Xoooooo  ooooooXXooooooooooXXoooooooooooo  ooooooooooooooooooooX",
"ooooo      oooooooooooooooooooooooooooo      ooooooooooooooooooo",
"ooooo      oooooooooooooooooOOOOOoooooo      ooooooooooooooooooo",
"                          ++@OOOOO                              ",
"                         +++@@@@OOO                             ",
" ........................++++@@@@@OO.......................     ",
" ........................++++###@@O#.......................     ",
"...............XX........++++####@##.........XX......XXO.....  .",
"...............XX........++++####@##.........XX......XOO.....  .",
"...XXXX..XXXXXXXXXXXX..XX+++@@@@@#@O.XXXX..XXXXXX..XXXOXX....  .",
"...XXXX..XXXXXXXXXXXX..XXX+++@@@##@O.XXXX..XXXXXX..XXOOXX....  .",
".ooXXXXXXXXXXXXooXXooXXXXX+++@@@@@@ooXXXXXXXXXXXXooXXOXXXoo..  .",
".ooXXXXXXXXXXXXooXXooXXXXXXo+++#@#@ooXXXXXXXXXXXXooXOOXXXoo..  .",
"oooooXXXXXXXXooooXXXXXXXXooo##+#@#oooooXXooooXXXXXXXO$Xoooooo  o",
"oooooXXXXXXXXooooXXXXXXXXooo###  ooooooXXooooXXXXXXOOXXoooooo  o",
"oooooooXXooooooooooooXXOOoOOOOOO@@oo@@oooooooooooooO$oooooooo  o",
"oooooooXXooooooooooooX@OOO@###@@@##++@@oooooooooooO$Xoooooooo  o",
" ooooooooooooooooooooo@@OO#OOOOOO@@#+@@oooooooooooO$ooooooo     ",
" ooooooooooooooooooooo@OOoOO###@@##+o+@ooooooooooO$oooooooo     ",
"                     @O   OOOOOOO@@@ +@          O$             ",
"                     @O   OO###@@##+  @         O$              ",
".............      .@O.....OOOOOO@@@..+@...     O$..............",
".............      .@O.....O###@@##+..+@...    O$...............",
"...XX..........  ..@O......O##OOO@#+...+@....  O$..........XX...",
"...XX..........  ..@O.......OOO##@@.....+@.%% $$...........XX...",
".XXXXXXXXXXXX..  ..@OXX..XXXOO###..XXXXXX+@%%&$$...XXXX..XXXXXX.",
".XXXXXXXXXXXX..  .@OXXX..XXXX###X..XXXXXX.+@%%&&...XXXX..XXXXXX.",
"XXXXXXXXXooXXXX  X@OXXXXXXXX**##**XXXXXoooo+%@@&&ooooXXXXXXXXXXX",
"XXXXXXXXXooXXXX  @OXXXXXXX@@@*****OOXXXoooo%%@ ..ooooXXXXXXXXXXX",
"ooooooooooooooo  @OOoooooo**@OO**OOOooooooo%%  ooooooooooooXXXXo",
"ooooooooooooooo  @@Oooooooo##@@OOOOoooooooo%&  ooooooooooooXXXXo",
"ooooooooooooo    @ oooooooo@OO#@@@#oooooooo      ooooooooooooooo",
"ooooooooooooo      ooooooooo@OOO@#*oooooooo      ooooooooooooooo",
"                            @OOOO*                              ",
"                            *@@OO                               ",
"   ......................  *++ .OO...........................   ",
"   ......................  ++  ..@O..........................   ",
" ............XXXX..........+ ....@O..............XXXX.......... ",
" ............XXXX.........++ .....@O.............XXXX.......... ",
" ....XX..XXXXXXXXXX..XX..++  ....X@OX..XXXXXX..XXXXXXXX..XX.... ",
" ....XX..XXXXXXXXXX..XX..*+  ....XX@O..XXXXXX..XXXXXXXX..XX.... ",
" ..ooXXXXXXXXooooXXXXXXoo*.  ..ooXX@OXXXXooXXXXXXXXXXXXXXXXoo.. ",
" ..ooXXXXXXXXooooXXXXXXo**.  ..ooXXX@OXXXooXXXXXXXXXXXXXXXXoo.. ",
" ooooooXXXXooooXXXXXXooo*oo  ooooooXX@XooooooXXXXXXXXXXXXoooooo ",
" ooooooXXXXooooXXXXXXoo**oo  ooooooXX@OooooooXXXXXXXXXXXXoooooo ",
" oooooooooooooooooooooo***o  oooooooo@OooooooooooooXXXXoooooooo ",
" oooooooooooooooooooooo****  oooooooo@@OoooooooooooXXXXoooooooo ",
"   oooooooooooooooooooooo      oooooooooooooooooooooooooooooo   ",
"   oooooooooooooooooooooo      oooooooooooooooooooooooooooooo   "
};
