/* XPM */
static char *_[] = {
/* columns rows colors chars-per-pixel */
"64 64 11 1 ",
"  c #2F2E2F",
". c #564064",
"X c #3E2F5A",
"o c #39314B",
"O c #222034",
"+ c black",
"@ c #696A6A",
"# c #929292",
"$ c #494949",
"% c #0C0B12",
"& c #363252",
/* pixels */
"                                                                ",
"                                                                ",
".....      ............................      ...................",
".....      ............................      ...................",
".......  ......XX................XX......  ............XX.......",
".......  ......XX................XX......  ............XX.......",
"XXX....  ....XXXXXXXX..XXXXXX..XXXXXX....  ....XXXX..XXXXXXXX..X",
"XXX....  ....XXXXXXXX..XXXXXX..XXXXXX....  ....XXXX..XXXXXXXX..X",
"XXXXX..  ..XXXXXXXXXXXXXXXXXXooXXXXXXXX..  ..XXXXXXXXXXooXXXXooX",
"XXXXX..  ..XXXXXXXXXXXXOOOOOOOO++XXXXXX..  ..XXXXXXXXXXooXXXXooX",
"XXXXXoo  ooXXXXXXXXXOOOOOOOOOOO++++XXXXoo  ooXXXXXXXXooooXXXXXXo",
"XXXXXoo  ooXXXXXXXOOOOOO@@@@@@@++++++XXoo  ooXXXXXXXXooooXXXXXXo",
"XXXoooo  ooooXXXOOOOOO##@@@@@@@@@++++++oo  ooooXXooooooXXXXooXXX",
"XXXoooo  ooooXXOOOOO###@@@@@@@@@@@@+++++o  ooooXXooooooXXXXooXXX",
"Xoooooo  oooooOOOO#####@@@@@@@@@@@@@@++++  ooooooooooooooooooooX",
"Xoooooo  oooooOOO#####@@@@@@@@@@@@@@@@@++  ooooooooooooooooooooX",
"ooooo      ooOOO######@@@@@@@@@@@@@@@@@+++   ooooooooooooooooooo",
"ooooo      ooOOO#####@@@@@@@@@@@@@@@@@@@++   ooooooooooooooooooo",
"            OOO######@@@@@@@@@@@@@@@@@@@+++                     ",
"            OOO#####@@@@@@@@@@@@@@@@@@@@@++                     ",
" ..........OOO######@@@@@@@@@@@@@@@@@@@@@++................     ",
" ..........OOO#####@@@@@@@@@@@@@@@@@@@@@@++................     ",
"...........OO######@@@@@@@@@@@@@@@@@@@@@@++..XX......XX......  .",
"..........OOO######@@@@@@@@@@@@@@@@@@@@@@++..XX......XX......  .",
"...XXXX..XOOO######@@@@@@@@@@@@@@@@@@@@@@++XXXXXX..XXXXXX....  .",
"...XXXX..XOO##OO###OO@@@++@@@@@@@@@@@@@@@++XXXXXX..XXXXXX....  .",
".ooXXXXXXXOO##OO##@OO@@@++@@@@@@@@@@@@@@@++XXXXXXooXXXXXXoo..  .",
".ooXXXXXXXOO##OO##@OO@@@++@@@@@@@@@@@@@@@++XXXXXXooXXXXXXoo..  .",
"oooooXXXXXOO##OO##@O+@@@++@@@@@@@@@@@@@@@++ooXXXXXXXXXXoooooo  o",
"oooooXXXXXOO##OO##@++@@@++@@@@@@@@@@@@@@@++ooXXXXXXXXXXoooooo  o",
"oooooooXXoOO##OO##@++@@@++@@@@@@@@@@@@@@@++ooooooooXXoooooooo  o",
"oooooooXXoOO##OO##@++@@@++@@@@@@@@@@@@@@@++ooooooooXXoooooooo  o",
" oooooooooOO##OO###++@@@++@@@@@@@@@@@@@@@++oooooooooooooooo     ",
" oooooooooOO########@@@@@@@@@@@@@@@@@@@@@++oooooooooooooooo     ",
"          OO########@@@@@@@@@@@@@@@@@@@@@++                     ",
"          OO########@@@@@@@@@@@@@@@@@@@@+++                     ",
"..........OO########@@@@@@@@@@@@@@@@@@@@++.      ...............",
"..........OO#########@@@@@@@@@@@@@@@@@@++++      ...............",
"...XX.....OOO########@@@@@@@@@@@@@@@@@+++++..  ............XX...",
"...XX......OOOO######@@@@@@@@@@@@@@@++++@++++++++..........XX...",
".XXXXXXXXXXXOOOOOOOOOO++++++@@@@@@@++++@++++++++++.XXXX..XXXXXX.",
".XXXXXXXXXXXOOOOOO+++++++++$$$$$$$$++@@+++OO%O%%+++XXXX..XXXXXX.",
"XXXXXXXXXooOOOO&&OO##@$$$$$$$$$$$@@@@@@++OOOO%%%%+++oXXXXXXXXXXX",
"XXXXXXXXXooOOO&&&OO##@@@@@@@@@@@@@@@@@+++OOO%%%%%%++oXXXXXXXXXXX",
"oooooooooooOO&&&&&OO###@@@@@@@@@@@@@@@++OOO%O%%%%%++oooooooXXXXo",
"oooooooooooOO&&&&&OO###@@@@@@@@@@@@@@@++O%OO%%%%%%++oooooooXXXXo",
"oooooooooooOO&&&&&OO##@@@@@@@@@@@@@@@@++%O%%%%%%%%++oooooooooooo",
"oooooooooooOOO&&&&OO##@@@@@@@@@@@@@@@@+++%%%%%%%%%++oooooooooooo",
"           OOOO&&&OO##@@@@@@@@@@@@@@@@+++%%%%%%%%+++            ",
"            OOOOOOOO###@@@@@@@@@@@@@@@@+++%%%%%%++++            ",
"   ..........OOOOOOO##@@@@@@@@@@@@@@@@@++++++++++++..........   ",
"   ...............OO###@@@@@@@@@@@@@@@@@++++++++++...........   ",
" ............XXXX.OOO##@@@@@@@@@@@@+++++++.......XXXX.......... ",
" ............XXXX.OOOO##@@@@@@@@@@++++++.........XXXX.......... ",
" ....XX..XXXXXXXXXX.OOOO+++++++++++@$$++XXXXX..XXXXXXXX..XX.... ",
" ....XX..XXXXXXXXXX..OOO++++++++++@@$$++XXXXX..XXXXXXXX..XX.... ",
" ..ooXXXXXXXXooooXXXXOO##@@@OO@@@@@@$$++XooXXXXXXXXXXXXXXXXoo.. ",
" ..ooXXXXXXXXooooXXXXOO##@@@OO@@@@@@$$++XooXXXXXXXXXXXXXXXXoo.. ",
" ooooooXXXXooooXXXXXXOO##@@@OO@@@@@@$$++oooooXXXXXXXXXXXXoooooo ",
" ooooooXXXXooooXXXXXXOOO##@@OO@@@@@@$$++oooooXXXXXXXXXXXXoooooo ",
" oooooooooooooooooooooOO##@@OO@@@@@$$$++oooooooooooXXXXoooooooo ",
" oooooooooooooooooooooOOOOOOOOO@@@$$$+++oooooooooooXXXXoooooooo ",
"   ooooooooooooooooooooOOOOOOOOOOOO++++oooooooooooooooooooooo   ",
"   oooooooooooooooooooooo     OOOOO+++ooooooooooooooooooooooo   "
};
