/* XPM */
static char *_[] = {
/* columns rows colors chars-per-pixel */
"64 64 11 1 ",
"  c #2F2E2F",
". c #564064",
"X c #3E2F5A",
"o c #39314B",
"O c #222034",
"+ c black",
"@ c #696A6A",
"# c #929292",
"$ c #0C0B12",
"% c #363252",
"& c #494949",
/* pixels */
"                                                                ",
"                                                                ",
".....      ............................      ...................",
".....      ............................      ...................",
".......  ......XX................XX......  ............XX.......",
".......  ......XX................XX......  ............XX.......",
"XXX....  ....XXXXXXXX..XXXXXX..XXXXXX....  ....XXXX..XXXXXXXX..X",
"XXX....  ....XXXXXXXX..XXXXXX..XXXXXX....  ....XXXX..XXXXXXXX..X",
"XXXXX..  ..XXXXXXXXXXXXXXXXXXooXXXXXXXX..  ..XXXXXXXXXXooXXXXooX",
"XXXXX..  ..XXXXXXXXXXXXXXXXXXooXXXXXXXX..  ..XXXXXXXXXXooXXXXooX",
"XXXXXoo  ooXXXXXXXXXXXXooooXXXXooXXXXXXoo  ooXXXXXXXXooooXXXXXXo",
"XXXXXoo  ooXXXXXXXXXXXXOOOOOOOO++XXXXXXoo  ooXXXXXXXXooooXXXXXXo",
"XXXoooo  ooooXXXXXXXOOOOOOOOOOO++++XXoooo  ooooXXooooooXXXXooXXX",
"XXXoooo  ooooXXXXXOOOOOO@@@@@@@++++++oooo  ooooXXooooooXXXXooXXX",
"Xoooooo  ooooooXOOOOOO##@@@@@@@@@++++++oo  ooooooooooooooooooooX",
"Xoooooo  ooooooOOOOO###@@@@@@@@@@@@+++++o  ooooooooooooooooooooX",
"ooooo      oooOOOO#####@@@@@@@@@@@@@@++++    ooooooooooooooooooo",
"ooooo      oooOOO#####@@@@@@@@@@@@@@@@@++    ooooooooooooooooooo",
"             OOO######@@@@@@@@@@@@@@@@@+++                      ",
"             OOO#####@@@@@@@@@@@@@@@@@@@++                      ",
" ...........OOO######@@@@@@@@@@@@@@@@@@@+++................     ",
" ...........OOO#####@@@@@@@@@@@@@@@@@@@@@++................     ",
"...........OOO######@@@@@@@@@@@@@@@@@@@@@++..XX......XX......  .",
"...........OOO#####@@@@@@@@@@@@@@@@@@@@@@++..XX......XX......  .",
"...XXXX..XXOO######@@@@@@@@@@@@@@@@@@@@@@++XXXXXX..XXXXXX....  .",
"...XXXX..XOOO######@@@@@@@@@@@@@@@@@@@@@@++XXXXXX..XXXXXX....  .",
".ooXXXXXXXOOO######@@@@@@@@@@@@@@@@@@@@@@++XXXXXXooXXXXXXoo..  .",
".ooXXXXXXXOO##OO###OO@@@++@@@@@@@@@@@@@@@++XXXXXXooXXXXXXoo..  .",
"oooooXXXXXOO##OO##@OO@@@++@@@@@@@@@@@@@@@++ooXXXXXXXXXXoooooo  o",
"oooooXXXXXOO##OO##@OO@@@++@@@@@@@@@@@@@@@++ooXXXXXXXXXXoooooo  o",
"oooooooXXoOO##OO##@O+@@@++@@@@@@@@@@@@@@@++ooooooooXXoooooooo  o",
"oooooooXXoOO##OO##@++@@@++@@@@@@@@@@@@@@@++ooooooooXXoooooooo  o",
" oooooooooOO##OO##@++@@@++@@@@@@@@@@@@@@@++oooooooooooooooo     ",
" oooooooooOO##OO##@++@@@++@@@@@@@@@@@@@@@++oooooooooooooooo     ",
"          OO##OO###++@@@++@@@@@@@@@@@@@@@++                     ",
"          OO########@@@@@@@@@@@@@@@@@@@@@++                     ",
"..........OO########@@@@@@@@@@@@@@@@@@@@@++      ...............",
"..........OO########@@@@@@@@@@@@@@@@@@@@+++++++++++.............",
"...XX.....OO########@@@@@@@@@@@@@@@@@@@@++++++++++++.......XX...",
"...XX.....OO#########@@@@@@@@@@@@@@@@@@+++++OO$O$$+++......XX...",
".XXXXXXXXXOOO########@@@@@@@@@@@@@@@@@+++++OOOO$$$$+++X..XXXXXX.",
".XXXXXXXXXOOOOO######@@@@@@@@@@@@@@@+++++++OOO$$$$$$++X..XXXXXX.",
"XXXXXXXXXOOOOOOOOOOOOO++++++@@@@@@@++++@++OOO$O$$$$$++XXXXXXXXXX",
"XXXXXXXXXOOO%%OOOO+++++++++@@@@@@@@++@@@++O$OO$$$$$$++XXXXXXXXXX",
"oooooooooOO%%%%%%%OO##@@@@@@@@@@@@@@@@@@++$O$$$$$$$$++oooooXXXXo",
"oooooooooOO%%%%%%%OO##@@@@@@@@@@@@@@@@@@+++$$$$$$$$$++oooooXXXXo",
"oooooooooOO%%%%%%%OO##@@@@@@@@@@@@@@@@@@+++$$$$$$$$+++oooooooooo",
"oooooooooOOO%%%%%%OO###@@@@@@@@@@@@@@@@@@+++$$$$$$++++oooooooooo",
"         OOOO%%%%%OO##@@@@@@@@@@@@@@@@@@@++++++++++++           ",
"          OOOOOOOOOO###@@@@@@@@@@@@@@@@@@+++++++++++            ",
"   ........OOOOOOOOOO##@@@@@@@@@@@@@@@@@+++..................   ",
"   ...............OOOO##@@@@@@@@@@++++++++...................   ",
" ............XXXX...OOOO++++++++++++++++.........XXXX.......... ",
" ............XXXX...OOOO++++++++++@&&++..........XXXX.......... ",
" ....XX..XXXXXXXXXX.OO###OO@@@@@@@&&&++XXXXXX..XXXXXXXX..XX.... ",
" ....XX..XXXXXXXXXX..OO#OO@@@@@@@@&&++.XXXXXX..XXXXXXXX..XX.... ",
" ..ooXXXXXXXXooooXXXXOO#OO@@@@@@@&&+++XXXooXXXXXXXXXXXXXXXXoo.. ",
" ..ooXXXXXXXXooooXXXXOOOOO@@@@@@&&&++XXXXooXXXXXXXXXXXXXXXXoo.. ",
" ooooooXXXXooooXXXXXXoOOOO@@@@@@&&++XXXooooooXXXXXXXXXXXXoooooo ",
" ooooooXXXXooooXXXXXXoOOOOO@@@&&&+++XXXooooooXXXXXXXXXXXXoooooo ",
" ooooooooooooooooooooooOOOOO&&&&&++ooooooooooooooooXXXXoooooooo ",
" ooooooooooooooooooooooOOOOOO+&++++ooooooooooooooooXXXXoooooooo ",
"   ooooooooooooooooooooooOOO++++++ooooooooooooooooooooooooooo   ",
"   ooooooooooooooooooooooOOO++++ooooooooooooooooooooooooooooo   "
};
