/* XPM */
static char *_[] = {
/* columns rows colors chars-per-pixel */
"64 64 11 1 ",
"  c #2F2E2F",
". c #564064",
"X c #3E2F5A",
"o c #39314B",
"O c #222034",
"+ c black",
"@ c #696A6A",
"# c #929292",
"$ c #494949",
"% c #0C0B12",
"& c #363252",
/* pixels */
"                                                                ",
"                                                                ",
".....      ............................      ...................",
".....      ............................      ...................",
".......  ......XX................XX......  ............XX.......",
".......  ......XX................XX......  ............XX.......",
"XXX....  ....XXXXXXXX..XXXXXX..XXXXXX....  ....XXXX..XXXXXXXX..X",
"XXX....  ....XXXXXXXX..XXXXXX..XXXXXX....  ....XXXX..XXXXXXXX..X",
"XXXXX..  ..XXXXXXXXXXXXXXXXXXooXXXXXXXX..  ..XXXXXXXXXXooXXXXooX",
"XXXXX..  ..XXXXXXXXXXXXXXXXXXooXXXXXXXX..  ..XXXXXXXXXXooXXXXooX",
"XXXXXoo  ooXXXXXXXXXXXXooooXXXXooXXXXXXoo  ooXXXXXXXXooooXXXXXXo",
"XXXXXoo  ooXXXXXXXXXXXXOOOOOOOO++XXXXXXoo  ooXXXXXXXXooooXXXXXXo",
"XXXoooo  ooooXXXXXXXOOOOOOOOOOO++++XXoooo  ooooXXooooooXXXXooXXX",
"XXXoooo  ooooXXXXXOOOOOO@@@@@@@++++++oooo  ooooXXooooooXXXXooXXX",
"Xoooooo  ooooooXOOOOOO##@@@@@@@@@++++++oo  ooooooooooooooooooooX",
"Xoooooo  ooooooOOOOO###@@@@@@@@@@@@+++++o  ooooooooooooooooooooX",
"ooooo      oooOOOO#####@@@@@@@@@@@@@@++++    ooooooooooooooooooo",
"ooooo      oooOOO#####@@@@@@@@@@@@@@@@@++    ooooooooooooooooooo",
"             OOO######@@@@@@@@@@@@@@@@@+++                      ",
"             OOO#####@@@@@@@@@@@@@@@@@@@++                      ",
" ...........OOO######@@@@@@@@@@@@@@@@@@@+++................     ",
" ...........OOO#####@@@@@@@@@@@@@@@@@@@@@++................     ",
"...........OOO######@@@@@@@@@@@@@@@@@@@@@++..XX......XX......  .",
"...........OOO#####@@@@@@@@@@@@@@@@@@@@@@++..XX......XX......  .",
"...XXXX..XXOO######@@@@@@@@@@@@@@@@@@@@@@++XXXXXX..XXXXXX....  .",
"...XXXX..XOOO######@@@@@@@@@@@@@@@@@@@@@@++XXXXXX..XXXXXX....  .",
".ooXXXXXXXOOO######@@@@@@@@@@@@@@@@@@@@@@++XXXXXXooXXXXXXoo..  .",
".ooXXXXXXXOO##OO###OO@@@++@@@@@@@@@@@@@@@++XXXXXXooXXXXXXoo..  .",
"oooooXXXXXOO##OO##@OO@@@++@@@@@@@@@@@@@@@++ooXXXXXXXXXXoooooo  o",
"oooooXXXXXOO##OO##@OO@@@++@@@@@@@@@@@@@@@++ooXXXXXXXXXXoooooo  o",
"oooooooXXoOO##OO##@O+@@@++@@@@@@@@@@@@@@@++ooooooooXXoooooooo  o",
"oooooooXXoOO##OO##@++@@@++@@@@@@@@@@@@@@@++ooooooooXXoooooooo  o",
" oooooooooOO##OO##@++@@@++@@@@@@@@@@@@@@@++oooooooooooooooo     ",
" oooooooooOO##OO##@++@@@++@@@@@@@@@@@@@@@++oooooooooooooooo     ",
"          OO##OO###++@@@++@@@@@@@@@@@@@@@++                     ",
"          OO########@@@@@@@@@@@@@@@@@@@@@++                     ",
"..........OO########@@@@@@@@@@@@@@@@@@@@@++      ...............",
"..........OO########@@@@@@@@@@@@@@@@@@@@+++      ...............",
"...XX.....OO########@@@@@@@@@@@@@@@@@@@@++...  ............XX...",
"...XX.....OO#########@@@@@@@@@@@@@@@@@@++++..  ............XX...",
".XXXXXXXXXOOO########@@@@@@@@@@@@@@@@@+++++..  ....XXXX..XXXXXX.",
".XXXXXXXXXXOOOO######@@@@@@@@@@@@@@++++++++..  ....XXXX..XXXXXX.",
"XXXXXXXXXooXOOOOOOOOOO++++++@@@@@@++++++++++.  ..ooooXXXXXXXXXXX",
"XXXXXXXXXooXXXOOOO+++++++++$$$$$$+++OO%O%%+++  ..ooooXXXXXXXXXXX",
"oooooooooooooooOOOO##@@@@@@@@@@@@++OOOO%%%%+++ ooooooooooooXXXXo",
"oooooooooooooooOOOO##@#@@@@@@@@@+++OOO%%%%%%++ ooooooooooooXXXXo",
"ooooooooooooo  OO&OO###@@@@@@@@@++OOO%O%%%%%++   ooooooooooooooo",
"ooooooooooooo  OO&OO##@@@@@@@@@@++O%OO%%%%%%++   ooooooooooooooo",
"               OO&OO##@@@@@@@@@@++%O%%%%%%%%++                  ",
"               OOOOO##@@@@@@@@@@+++%%%%%%%%%++                  ",
"   ............OOOOO###@@@@@@@@@+++%%%%%%%%+++...............   ",
"   .............OOOO##@@@@@@@@@@@+++%%%%%%++++...............   ",
" ............XXXXOOO###@@@@@@@@@@++++++++++++....XXXX.......... ",
" ............XXXX.OO###@@@@@@@@@@@++++++++++.....XXXX.......... ",
" ....XX..XXXXXXXXXOOO###@@@@@@@@@++++++++++XX..XXXXXXXX..XX.... ",
" ....XX..XXXXXXXXXOOOOOO++++++++++++++++$++XX..XXXXXXXX..XX.... ",
" ..ooXXXXXXXXooooOO#OOOO+++++++++@@@@@@$$++XXXXXXXXXXXXXXXXoo.. ",
" ..ooXXXXXXXXooooOO##@@@@@@@OO.OO@@@@@@@$$++XXXXXXXXXXXXXXXoo.. ",
" ooooooXXXXooooXXOO##@@@@@@@OOooOO@@@@@@$$++oXXXXXXXXXXXXoooooo ",
" ooooooXXXXooooXXOOO##@@@@@@OOooOO@@@@@$$+++oXXXXXXXXXXXXoooooo ",
" oooooooooooooooooOO##@@@@@OOOooOO@@@@$$$+++oooooooXXXXoooooooo ",
" oooooooooooooooooOOOOO@@@@OOOoooOOO@OOO+++ooooooooXXXXoooooooo ",
"   oooooooooooooooOOOOOOOOOOO  ooOOOOOOO+oooooooooooooooooooo   ",
"   ooooooooooooooooooooOOOO    ooooOOOooooooooooooooooooooooo   "
};
