/* XPM */
static char *_[] = {
/* columns rows colors chars-per-pixel */
"64 64 11 1 ",
"  c #2F2E2F",
". c #564064",
"X c #3E2F5A",
"o c #39314B",
"O c #222034",
"+ c black",
"@ c #696A6A",
"# c #929292",
"$ c #0C0B12",
"% c #363252",
"& c #494949",
/* pixels */
"                                                                ",
"                                                                ",
".....      ............................      ...................",
".....      ............................      ...................",
".......  ......XX................XX......  ............XX.......",
".......  ......XX................XX......  ............XX.......",
"XXX....  ....XXXXXXXX..XXXXXX..XXXXXX....  ....XXXX..XXXXXXXX..X",
"XXX....  ....XXXXXXXX..XXXXXX..XXXXXX....  ....XXXX..XXXXXXXX..X",
"XXXXX..  ..XXXXXXXXXXXXXXXXXXooXXXXXXXX..  ..XXXXXXXXXXooXXXXooX",
"XXXXX..  ..XXXXXXXXXXXXXXXXXXooXXXXXXXX..  ..XXXXXXXXXXooXXXXooX",
"XXXXXoo  ooXXXXXXXXXXXXooooXXXXooXXXXXXoo  ooXXXXXXXXooooXXXXXXo",
"XXXXXoo  ooXXXXXXXXXXXXooooXXXXooXXXXXXoo  ooXXXXXXXXooooXXXXXXo",
"XXXoooo  ooooXXXXXXXXooOOOOOOOO++ooXXoooo  ooooXXooooooXXXXooXXX",
"XXXoooo  ooooXXXXXXXOOOOOOOOOOO++++XXoooo  ooooXXooooooXXXXooXXX",
"Xoooooo  ooooooXXoOOOOOO@@@@@@@++++++oooo  ooooooooooooooooooooX",
"Xoooooo  ooooooXOOOOOO##@@@@@@@@@++++++oo  ooooooooooooooooooooX",
"ooooo      ooooOOOOO###@@@@@@@@@@@@+++++     ooooooooooooooooooo",
"ooooo      oooOOOO#####@@@@@@@@@@@@@@++++    ooooooooooooooooooo",
"              OOO#####@@@@@@@@@@@@@@@@@++                       ",
"             OOO######@@@@@@@@@@@@@@@@@+++                      ",
" ............OOO#####@@@@@@@@@@@@@@@@@@@++.................     ",
" ...........OOO######@@@@@@@@@@@@@@@@@@@+++................     ",
"............OOO#####@@@@@@@@@@@@@@@@@@@@@++..XX......XX......  .",
"...........OOO######@@@@@@@@@@@@@@@@@@@@@++..XX......XX......  .",
"...XXXX..XXOOO#####@@@@@@@@@@@@@@@@@@@@@@++XXXXXX..XXXXXX....  .",
"...XXXX..XXOO######@@@@@@@@@@@@@@@@@@@@@@++XXXXXX..XXXXXX....  .",
".ooXXXXXXXOOO######@@@@@@@@@@@@@@@@@@@@@@++XXXXXXooXXXXXXoo..  .",
".ooXXXXXXXOOO######@@@@@@@@@@@@@@@@@@@@@@++XXXXXXooXXXXXXoo..  .",
"oooooXXXXXOO##OO###OO@@@++@@@@@@@@@@@@@@@++ooXXXXXXXXXXoooooo  o",
"oooooXXXXXOO##OO##@OO@@@++@@@@@@@@@@@@@@@++ooXXXXXXXXXXoooooo  o",
"oooooooXXoOO##OO##@OO@@@++@@@@@@@@@@@@@@@++ooooooooXXoooooooo  o",
"oooooooXXoOO##OO##@O+@@@++@@@@@@@@@@@@@@@++ooooooooXXoooooooo  o",
" oooooooooOO##OO##@++@@@++@@@@@@@@@@@@@@@++oooooooooooooooo     ",
" oooooooooOO##OO##@++@@@++@@@@@@@@@@@@@@@++oooooooooooooooo     ",
"          OO##OO##@++@@@++@@@@@@@@@@@@@@@++                     ",
"          OO##OO###++@@@++@@@@@@@@@@@@@@@++                     ",
"..........OO########@@@@@@@@@@@@@@@@@@@@@++      ...............",
"..........OO########@@@@@@@@@@@@@@@@@@@@@++      ...............",
"...XX.....OO########@@@@@@@@@@@@@@@@@@@@+++++++++++........XX...",
"...XX.....OO########@@@@@@@@@@@@@@@@@@@@++++++++++++.......XX...",
".XXXXXXXXXOO#########@@@@@@@@@@@@@@@@@@+++++OO$O$$+++XX..XXXXXX.",
".XXXXXXXXXOOO########@@@@@@@@@@@@@@@@@+++++OOOO$$$$+++X..XXXXXX.",
"XXXXXXXXXoOOOOO######@@@@@@@@@@@@@@@+++++++OOO$$$$$$++XXXXXXXXXX",
"XXXXXXXXXOOOOOOOOOOOOO++++++@@@@@@@++++@++OOO$O$$$$$++XXXXXXXXXX",
"oooooooooOOO%%OOOO+++++++++@@@@@@@@++@@@++O$OO$$$$$$++oooooXXXXo",
"oooooooooOO%%%%%%%OO##@@@@@@@@@@@@@@@@@@++$O$$$$$$$$++oooooXXXXo",
"oooooooooOO%%%%%%%OO##@@@@@@@@@@@@@@@@@@+++$$$$$$$$$++oooooooooo",
"oooooooooOO%%%%%%%OO##@@@@@@@@@@@@@@@@@@+++$$$$$$$$+++oooooooooo",
"         OOO%%%%%%OO###@@@@@@@@@@@@@@@@@@+++$$$$$$++++          ",
"         OOOO%%%%%OO##@@@@@@@@@@@@@@@@@@@++++++++++++           ",
"   .......OOOOOOOOOO###@@@@@@@@@@@@@@@@@@+++++++++++.........   ",
"   ........OOOOOOOOOO##@@@@@@@@@@@@@@@@@+++..................   ",
" ............XXXX.OOOO##@@@@@@@@@@++++++++.......XXXX.......... ",
" ............XXXX...OOOO++++++++++++++++.........XXXX.......... ",
" ....XX..XXXXXXXXXX.OOOO++++++++++@&&++XXXXXX..XXXXXXXX..XX.... ",
" ....XX..XXXXXXXXXX.OO###OO@@@@@@@&&&++XXXXXX..XXXXXXXX..XX.... ",
" ..ooXXXXXXXXooooXXXXOO#OO@@@@@@@@&&++XXXooXXXXXXXXXXXXXXXXoo.. ",
" ..ooXXXXXXXXooooXXXXOO#OO@@@@@@@&&+++XXXooXXXXXXXXXXXXXXXXoo.. ",
" ooooooXXXXooooXXXXXXOOOOO@@@@@@&&&++XXooooooXXXXXXXXXXXXoooooo ",
" ooooooXXXXooooXXXXXXoOOOO@@@@@@&&++XXXooooooXXXXXXXXXXXXoooooo ",
" oooooooooooooooooooooOOOOO@@@&&&+++oooooooooooooooXXXXoooooooo ",
" ooooooooooooooooooooooOOOOO&&&&&++ooooooooooooooooXXXXoooooooo ",
"   ooooooooooooooooooooOOOOOO+&++++oooooooooooooooooooooooooo   ",
"   ooooooooooooooooooooooOOO++++++ooooooooooooooooooooooooooo   "
};
